<svg xmlns="http://www.w3.org/2000/svg" viewBox="0 0 32 32">
  <path d="M29.09 16.266V4.444c0-.383-.152-.75-.425-1.02a1.46 1.46 0 0 0-2.057 0 1.44 1.44 0 0 0-.426 1.02V5.89H5.818V4.444c0-.383-.153-.75-.426-1.02a1.46 1.46 0 0 0-2.057 0 1.44 1.44 0 0 0-.426 1.02v11.822a4.36 4.36 0 0 0-2.103 1.576A4.313 4.313 0 0 0 0 20.333v7.223c0 .383.153.75.426 1.02a1.46 1.46 0 0 0 2.057 0 1.44 1.44 0 0 0 .426-1.02V26.11h26.182v1.445c0 .383.153.75.426 1.02a1.46 1.46 0 0 0 2.057 0 1.44 1.44 0 0 0 .426-1.02v-7.223a4.313 4.313 0 0 0-.806-2.49 4.361 4.361 0 0 0-2.103-1.577ZM26.183 16h-1.455v-2.889c0-.383-.153-.75-.426-1.021a1.46 1.46 0 0 0-1.028-.423H8.727a1.46 1.46 0 0 0-1.028.423 1.44 1.44 0 0 0-.426 1.021V16H5.818V8.778h20.364V16Zm-16 0v-1.444h4.364V16h-4.364Zm7.272-1.444h4.364V16h-4.364v-1.444Z"/>
</svg>
