<svg xmlns="http://www.w3.org/2000/svg" viewBox="0 0 18 18">
  <path d="M3.938 3.375h1.124a.563.563 0 0 0 .563-.563V.563A.562.562 0 0 0 5.062 0H3.938a.562.562 0 0 0-.562.563v2.25c0 .31.252.562.563.562ZM18 4.5v11.25A2.25 2.25 0 0 1 15.75 18H2.25A2.25 2.25 0 0 1 0 15.75V4.5a2.25 2.25 0 0 1 2.25-2.25h.563v.563c0 .62.504 1.124 1.124 1.124h1.126c.62 0 1.125-.505 1.125-1.124V2.25h5.625v.563c0 .62.505 1.124 1.124 1.124h1.126c.62 0 1.124-.505 1.124-1.124V2.25h.563A2.25 2.25 0 0 1 18 4.5Zm-1.125 2.25c0-.62-.504-1.125-1.125-1.125H2.25c-.62 0-1.125.505-1.125 1.125v9c0 .62.505 1.125 1.125 1.125h13.5c.62 0 1.125-.504 1.125-1.125v-9Zm-3.938-3.375h1.126c.31 0 .562-.252.562-.563V.563A.562.562 0 0 0 14.062 0h-1.124a.562.562 0 0 0-.563.563v2.25c0 .31.252.562.563.562Z"/>
  <path d="M10.25 9.063v-2.5l4.375 4.375-4.375 4.374V12.75c-3.125 0-5.313 1-6.875 3.188.625-3.126 2.5-6.25 6.875-6.876Z"/>
</svg>
