<svg xmlns="http://www.w3.org/2000/svg" viewBox="0 0 32 32">
  <path d="M25.33 7.232a2.613 2.613 0 0 0 2.61-2.616A2.613 2.613 0 0 0 25.33 2a2.613 2.613 0 0 0-2.61 2.616 2.613 2.613 0 0 0 2.61 2.616Zm-18.65 0a2.613 2.613 0 0 0 2.612-2.616A2.613 2.613 0 0 0 6.68 2a2.613 2.613 0 0 0-2.61 2.616 2.613 2.613 0 0 0 2.61 2.616Zm9.326 0a2.613 2.613 0 0 0 2.61-2.616A2.613 2.613 0 0 0 16.006 2a2.613 2.613 0 0 0-2.611 2.616 2.613 2.613 0 0 0 2.61 2.616Zm6.639 9.568-1.679-6.205c-.075-.224-.186-.448-.336-.597a6.476 6.476 0 0 0-2.573-1.645 5.996 5.996 0 0 0-2.014-.336 6 6 0 0 0-2.014.336 6.226 6.226 0 0 0-2.574 1.645c-.15.186-.261.373-.336.598l-1.678 6.203c-.15.598.15 1.27.783 1.42a.821.821 0 0 0 .299.037c.485 0 .932-.336 1.081-.822l1.492-5.456V31h2.238V20.312h1.492v10.65h2.238V11.979l1.492 5.456c.149.486.597.822 1.081.822.112 0 .187 0 .299-.037.522-.15.858-.822.709-1.42Z"/>
  <path d="m8.658 16.612 1.678-6.204c.075-.336.261-.635.448-.897a6.269 6.269 0 0 0-2.126-1.195 5.996 5.996 0 0 0-2.014-.337c-.709 0-1.38.112-2.014.337A6.226 6.226 0 0 0 2.056 9.96c-.15.187-.261.374-.336.598l-1.678 6.24c-.15.599.15 1.271.783 1.42a.81.81 0 0 0 .299.038c.484 0 .932-.336 1.081-.822l1.492-5.456V31h2.238V20.312h1.492v10.65h2.238V18.854c-.783-.373-1.231-1.308-1.007-2.242Zm23.311.188-1.716-6.205c-.074-.224-.186-.448-.335-.597a6.476 6.476 0 0 0-2.574-1.645 5.996 5.996 0 0 0-2.014-.336 6 6 0 0 0-2.014.336A6.643 6.643 0 0 0 21.19 9.55c.224.262.373.56.447.86l1.679 6.203a1.924 1.924 0 0 1-1.007 2.243V31h2.238V20.312h1.492v10.65h2.237V11.979l1.492 5.456c.15.486.597.822 1.082.822.112 0 .187 0 .298-.037.634-.15.97-.822.821-1.42Z"/>
</svg>
