<svg width="25" height="25" viewBox="0 0 25 25" fill="none" xmlns="http://www.w3.org/2000/svg">
<path d="M24.9459 19.3704C24.8752 19.1574 24.4253 18.8435 23.5966 18.4296C23.3721 18.2991 23.0522 18.1218 22.6383 17.8969C22.224 17.6719 21.8479 17.4646 21.5108 17.2752C21.173 17.0858 20.8565 16.9024 20.5608 16.7251C20.5135 16.6896 20.3656 16.5862 20.117 16.4141C19.8682 16.2426 19.6583 16.1153 19.4864 16.0323C19.3148 15.9498 19.146 15.9082 18.9803 15.9082C18.7436 15.9082 18.448 16.077 18.093 16.4141C17.738 16.7517 17.4124 17.1184 17.1166 17.5153C16.8208 17.912 16.507 18.2786 16.1759 18.616C15.8443 18.9535 15.5719 19.1221 15.3591 19.1221C15.2522 19.1221 15.119 19.0923 14.9594 19.0336C14.7998 18.9744 14.6784 18.9237 14.5951 18.8829C14.5125 18.8411 14.3708 18.7586 14.1694 18.6339C13.9677 18.5095 13.8555 18.4414 13.8318 18.4296C12.2102 17.5298 10.8195 16.4999 9.65936 15.3403C8.49959 14.1799 7.46961 12.7893 6.57004 11.1675C6.55823 11.1438 6.49001 11.0313 6.36581 10.8302C6.24143 10.6289 6.15854 10.4871 6.11712 10.404C6.0757 10.3212 6.02539 10.1998 5.96631 10.04C5.90723 9.88027 5.87756 9.74719 5.87756 9.64053C5.87756 9.4276 6.04628 9.15521 6.38366 8.82374C6.72098 8.49246 7.08802 8.17865 7.48441 7.88294C7.88112 7.58723 8.24779 7.2616 8.58523 6.90663C8.92254 6.55146 9.0912 6.25569 9.0912 6.019C9.0912 5.85339 9.04978 5.68454 8.96701 5.51296C8.88417 5.34101 8.75693 5.13118 8.58523 4.88249C8.41346 4.63392 8.30991 4.48609 8.27434 4.43852C8.09698 4.14281 7.91371 3.8262 7.72409 3.48882C7.53448 3.15151 7.32751 2.77551 7.10251 2.36127C6.87769 1.94721 6.70027 1.6275 6.56992 1.40262C6.15586 0.574194 5.84224 0.124192 5.62912 0.0534207C5.54622 0.0179105 5.42184 0 5.25629 0C4.93652 0 4.51935 0.0590799 4.00448 0.177613C3.48943 0.295959 3.08414 0.420089 2.78819 0.5505C2.19633 0.798947 1.56903 1.52097 0.906087 2.71631C0.302415 3.82875 0.000610352 4.92981 0.000610352 6.01869C0.000610352 6.33803 0.0213194 6.64873 0.0627375 6.95084C0.104156 7.25265 0.178161 7.59301 0.284816 7.97187C0.391284 8.3506 0.477167 8.63195 0.542093 8.81516C0.607081 8.99849 0.728412 9.32691 0.906025 9.80055C1.08339 10.2741 1.19004 10.5639 1.22555 10.6705C1.6398 11.8305 2.13103 12.8662 2.69913 13.7777C3.63384 15.2927 4.9094 16.8585 6.52508 18.4743C8.14082 20.09 9.70625 21.3655 11.2214 22.3005C12.1328 22.8686 13.1688 23.3598 14.3287 23.7743C14.4353 23.8096 14.7252 23.916 15.1985 24.094C15.672 24.2715 16.0006 24.3928 16.1839 24.458C16.3673 24.5231 16.6487 24.6091 17.0271 24.7157C17.4063 24.8224 17.7464 24.8964 18.0482 24.9381C18.3502 24.979 18.661 25.0001 18.9804 25.0001C20.0692 25.0001 21.1703 24.6981 22.2829 24.0945C23.4781 23.4318 24.2 22.8043 24.4485 22.2121C24.5793 21.9164 24.7031 21.511 24.8214 20.9959C24.9402 20.4811 24.9991 20.064 24.9991 19.7443C24.9995 19.5781 24.9816 19.454 24.9459 19.3704Z" fill="currentColor"/>
</svg>
