<svg xmlns="http://www.w3.org/2000/svg" viewBox="0 0 25 25">
  <path d="M16.629 25a.834.834 0 0 1-.483-.154.815.815 0 0 1-.3-.403L11.84 12.61.55 8.67a.824.824 0 0 1-.403-.304.806.806 0 0 1 .02-.953.826.826 0 0 1 .416-.288L23.932.036a.837.837 0 0 1 .83.206.811.811 0 0 1 .199.82l-7.546 23.37a.815.815 0 0 1-.297.409.834.834 0 0 1-.484.159h-.005ZM3.455 7.958l9.321 3.257a.827.827 0 0 1 .507.51l3.328 9.84L22.905 2.05 3.455 7.958Z"/>
  <path d="M12.5 12.786a.826.826 0 0 1-.593-.248.808.808 0 0 1 .019-1.151l5.836-5.576a.83.83 0 0 1 .589-.232.838.838 0 0 1 .582.246.813.813 0 0 1 .168.892.817.817 0 0 1-.183.263l-5.838 5.578a.832.832 0 0 1-.58.228Zm-4.128 11.86a.834.834 0 0 1-.475-.148.803.803 0 0 1-.052-1.293l4.128-3.368a.834.834 0 0 1 1.158.111.807.807 0 0 1-.104 1.143l-4.129 3.368a.833.833 0 0 1-.526.187Zm-7.546 0a.835.835 0 0 1-.46-.137.803.803 0 0 1-.124-1.253l7.545-7.439a.833.833 0 0 1 1.17 0 .81.81 0 0 1 0 1.153L1.41 24.407a.825.825 0 0 1-.584.24Zm0-7.438a.835.835 0 0 1-.748-.468.804.804 0 0 1 .112-.866l3.417-4.07a.834.834 0 0 1 1.159-.103.806.806 0 0 1 .113 1.142l-3.417 4.07a.824.824 0 0 1-.636.295Z"/>
</svg>
