<svg xmlns="http://www.w3.org/2000/svg" viewBox="0 0 32 32">
  <path d="M14.473 5.388 8.911 9.76V4.89h1.34V2.74h2.273V.872C12.524.393 14.08 0 16 0s3.476.394 3.476.873v1.865h2.274v2.15h1.337v4.869l-5.56-4.369c-.84-.658-2.213-.658-3.054 0Z"/>
  <path d="m24.39 12.142-1.302-1.025-5.561-4.369c-.317-.248-.716-.371-1.127-.434V20.9c0 .238-.18.433-.4.433-.22 0-.4-.195-.4-.433V6.314c-.41.063-.81.186-1.127.434L8.911 11.12 7.61 12.142c-.841.659-1.264 2.07-.946 3.138l3.204 8.804c.248.112.512.183.81.191 1.064-.027 1.775-.696 2.338-2.169a.601.601 0 0 1 .044-.115c.058-.09.137-.151.234-.151.095 0 .178.06.237.151h.002c.005.017.01.02.013.034.009.024.021.037.028.061.575 1.524 1.298 2.2 2.41 2.2h.008c1.102 0 1.825-.673 2.399-2.18a.608.608 0 0 1 .044-.115c.056-.09.137-.151.234-.151.096 0 .18.06.237.151h.002c.005.017.012.02.015.034.01.024.02.037.026.061.566 1.5 1.28 2.172 2.359 2.193.305-.005.573-.08.823-.195l3.205-8.804c.319-1.067-.105-2.48-.945-3.138Zm-10.609.356c-.348 0-.63-.304-.63-.68 0-.375.282-.68.63-.68.347 0 .628.305.628.68 0 .376-.281.68-.628.68Zm4.485 0c-.349 0-.63-.304-.63-.68 0-.375.281-.68.63-.68.347 0 .628.305.628.68 0 .376-.281.68-.628.68Z"/>
  <path d="M32 25.976h-.04V32H.021v-6.024H0c1.101 0 1.83-.672 2.405-2.179a.39.39 0 0 1 .042-.115c.056-.09.14-.151.234-.151.102 0 .181.06.233.151h.01c.001.017.006.02.012.034.01.024.017.037.025.061.575 1.524 1.3 2.2 2.41 2.2h.004c1.101 0 1.831-.673 2.406-2.18a.347.347 0 0 1 .041-.115h.003c.053-.09.136-.151.236-.151.097 0 .18.06.233.151H8.3c.001.017.008.02.012.034.01.024.018.037.024.061.565 1.49 1.276 2.162 2.343 2.19 1.064-.028 1.775-.697 2.338-2.17a.604.604 0 0 1 .044-.115c.058-.09.137-.151.234-.151.095 0 .178.06.237.151h.002c.005.017.01.02.013.034.009.024.021.037.028.061.575 1.524 1.298 2.2 2.41 2.2h.008c1.102 0 1.825-.673 2.399-2.18a.598.598 0 0 1 .044-.115c.056-.09.137-.151.234-.151.096 0 .18.06.237.151h.002c.005.017.012.02.015.034.01.024.02.037.026.061.566 1.5 1.28 2.172 2.359 2.193 1.072-.02 1.784-.693 2.353-2.172a.35.35 0 0 1 .042-.115c.057-.092.136-.152.233-.152.1 0 .183.06.235.152h.006c.003.017.01.02.017.034.007.023.014.037.022.06.573 1.524 1.3 2.2 2.41 2.2h.007c1.103 0 1.828-.672 2.402-2.18a.39.39 0 0 1 .043-.114c.057-.092.14-.152.236-.152.1 0 .181.06.235.152h.003c.006.017.01.02.019.034.004.023.014.037.018.06.578 1.524 1.302 2.2 2.411 2.2Z"/>
</svg>
