<svg xmlns="http://www.w3.org/2000/svg" viewBox="0 0 32 32">
  <path d="M3.31 15.867a1.334 1.334 0 0 0 1.706.808L6.9 16a1.322 1.322 0 0 0 .756-.685.63.63 0 0 0 .047-.134l.48-2.096a.332.332 0 0 1 .533-.19l1.7 1.32c.038.029.08.054.124.074a1.316 1.316 0 0 0 1.02.05l3.19-1.14a.33.33 0 0 1 .426.2l3.01 8.416a.335.335 0 0 1-.255.44 10.143 10.143 0 0 0-7.2 4.437.334.334 0 0 0 .168.473c.205.086.424.131.646.134a3.585 3.585 0 0 0 2.442-1.334 3.44 3.44 0 0 1 2.666-1.341 3.342 3.342 0 0 1 3.008 1.887l.016.029a1.566 1.566 0 0 0 1.3.764 2.383 2.383 0 0 0 1.832-1.012 3.332 3.332 0 0 1 5.715-.107l.016.023c.09.12.908 1.2 1.69 1.08.453-.058.912-.02 1.349.108a.33.33 0 0 0 .426-.319v-4.41A.667.667 0 0 0 31.34 22H21.316a.33.33 0 0 1-.313-.221l-3.322-9.286a.333.333 0 0 1 .203-.425l3.2-1.143a1.326 1.326 0 0 0 .753-.686.534.534 0 0 0 .047-.134l.48-2.096a.334.334 0 0 1 .533-.189l1.7 1.319c.039.029.08.054.123.074a1.334 1.334 0 0 0 1.02.052l1.883-.674a1.333 1.333 0 0 0 .806-1.704l-.225-.628a7.401 7.401 0 0 0-5.992-4.77 17.467 17.467 0 0 0-7.913.595.333.333 0 0 1-.4-.208L13.53.884a1.333 1.333 0 0 0-2.511.899l.355.988a.335.335 0 0 1-.182.418 17.467 17.467 0 0 0-6.496 4.56 7.399 7.399 0 0 0-1.61 7.484l.224.634Z"/>
  <path d="M1.89 32c-2 0-1.911-1.299-1.88-1.545a1.334 1.334 0 0 1 1.5-1.146c2.231.29 4.243-2.169 4.266-2.193a1.39 1.39 0 0 1 2.184.121 4.614 4.614 0 0 0 3.579 2.051 5.589 5.589 0 0 0 4.036-2.133 1.394 1.394 0 0 1 2.285.214 3.635 3.635 0 0 0 3.115 1.919 4.348 4.348 0 0 0 3.564-2.013 1.39 1.39 0 0 1 2.292-.038c.012.018 1.494 2.302 3.661 2.019a1.333 1.333 0 1 1 .353 2.643 6.03 6.03 0 0 1-4.92-1.68.33.33 0 0 0-.445 0 6.704 6.704 0 0 1-4.505 1.733 5.965 5.965 0 0 1-4.254-1.733.332.332 0 0 0-.44-.022 7.576 7.576 0 0 1-4.742 1.762 6.788 6.788 0 0 1-4.57-1.843.33.33 0 0 0-.437-.01A7.467 7.467 0 0 1 1.89 32Z"/>
</svg>
