<svg xmlns="http://www.w3.org/2000/svg" viewBox="0 0 25 25">
  <path d="M3.125 3.906V.781a.78.78 0 1 1 1.563 0v3.125a.78.78 0 1 1-1.563 0Zm13.281.782a.78.78 0 0 0 .782-.782V.781a.78.78 0 1 0-1.563 0v3.125c0 .432.35.782.781.782ZM25 18.75a6.25 6.25 0 1 1-12.5 0 6.25 6.25 0 0 1 12.5 0Zm-1.562 0a4.693 4.693 0 0 0-4.688-4.688 4.693 4.693 0 0 0-4.687 4.688 4.693 4.693 0 0 0 4.687 4.688 4.693 4.693 0 0 0 4.688-4.688ZM6.25 9.375H3.125V12.5H6.25V9.375Zm-3.125 7.813H6.25v-3.126H3.125v3.126ZM7.812 12.5h3.126V9.375H7.812V12.5Zm0 4.688h3.126v-3.126H7.812v3.126Zm-6.25 1.407V7.812H18.75v3.126h1.563V4.843c0-.949-.757-1.718-1.693-1.718h-.651v.781c0 .86-.7 1.563-1.563 1.563a1.565 1.565 0 0 1-1.562-1.563v-.781H5.469v.781c0 .86-.7 1.563-1.563 1.563a1.565 1.565 0 0 1-1.562-1.563v-.781h-.651C.758 3.125 0 3.895 0 4.843v13.752c0 .946.758 1.718 1.693 1.718h9.245V18.75H1.693c-.07 0-.13-.073-.13-.155ZM15.626 12.5V9.375H12.5V12.5h3.125Zm6.439 4.727a.78.78 0 0 0-1.105 0l-2.761 2.762-1.658-1.657a.78.78 0 1 0-1.104 1.105l2.21 2.21a.78.78 0 0 0 1.104 0l3.314-3.315a.78.78 0 0 0 0-1.105Z"/>
</svg>
