<svg xmlns="http://www.w3.org/2000/svg" viewBox="0 0 25 25">
  <path d="m24.144 18.1-3.113-3.141c-.515-.515-1.21-.824-1.853-.824-.695 0-1.312.283-1.853.824l-1.8 1.802a1.205 1.205 0 0 0-.258-.129s-.026 0-.026-.025l-.026-.026a4.627 4.627 0 0 0-.797-.438c-1.57-.978-3.037-2.343-4.53-4.17-.694-.876-1.183-1.649-1.569-2.498.412-.335.72-.67.952-.927l.798-.798c.617-.567.926-1.21.926-1.88 0-.695-.309-1.339-.9-1.957L7.65 1.468c-.232-.232-.463-.464-.72-.696C6.415.283 5.772 0 5.103 0c-.747 0-1.364.257-1.93.824l-1.879 1.88C.548 3.398.111 4.273.008 5.354v.026c-.052 1.339.154 2.575.72 4.12.9 2.42 2.265 4.685 4.297 7.183 2.65 2.986 5.636 5.304 8.955 6.9l.077.026c.978.437 2.83 1.261 4.89 1.39h.283c1.363 0 2.393-.438 3.242-1.365.308-.36.643-.695.926-1.004.232-.18.386-.36.54-.54l.206-.206.052-.052c1.08-1.184 1.08-2.626-.052-3.733Zm-.9 2.858-.258.257-.025.052c-.129.154-.232.283-.36.386l-.078.077c-.309.31-.669.67-1.03 1.081-.59.644-1.26.927-2.263.927h-.206c-1.802-.128-3.449-.85-4.426-1.287l-.052-.026c-3.165-1.519-6.021-3.733-8.517-6.565-1.956-2.369-3.242-4.531-4.091-6.797-.515-1.416-.695-2.446-.644-3.605.077-.746.36-1.339.875-1.802l1.904-1.905c.31-.31.618-.438 1.004-.438.334 0 .643.155.926.412l.026.026c.232.206.463.437.695.67l2.444 2.445c.463.464.54.824.54 1.03 0 .206-.05.515-.54.953l-.823.824A10.18 10.18 0 0 1 7.29 8.677l-.052.051-.051.077c-.232.31-.257.593-.129 1.004l.026.103.026.103c.437.953.977 1.829 1.75 2.807 1.595 1.957 3.19 3.424 4.889 4.48l.077.051c.206.103.412.206.592.31.077.076.18.128.257.154.103.051.18.077.231.128l.18.13h.052l.077.025a.962.962 0 0 0 .335.051c.257 0 .489-.103.72-.334l1.93-1.931c.309-.31.592-.438.952-.438.386 0 .746.232.952.438l3.14 3.14c.617.619.643 1.262 0 1.932Z"/>
</svg>
