<svg xmlns="http://www.w3.org/2000/svg" viewBox="0 0 18 18">
  <path d="M11.325 13.345a6.633 6.633 0 0 1-4.721-1.95 6.636 6.636 0 0 1-1.95-4.723c0-1.781.69-3.462 1.95-4.722A6.633 6.633 0 0 1 11.325 0c1.781 0 3.462.69 4.722 1.95a6.686 6.686 0 0 1 0 9.445 6.633 6.633 0 0 1-4.722 1.95Zm0-11.395c-1.26 0-2.453.487-3.344 1.378a4.728 4.728 0 0 0 0 6.689 4.702 4.702 0 0 0 3.344 1.378 4.701 4.701 0 0 0 4.722-4.723 4.704 4.704 0 0 0-4.722-4.722ZM0 16.168l5.007-5.008a7.945 7.945 0 0 0 1.832 1.832L1.832 18 0 16.168Z"/>
</svg>
