<svg width="136" height="80" fill="none" xmlns="http://www.w3.org/2000/svg"><g clip-path="url(#clip0_4164_335)"><path d="M46.964 71.133c.143-.14.026-.1.053-.2l-.133-.035c-.055-.193-.015-.075-.154-.22l-.024-.042c-.049-.085-.016-.076-.115-.103-.133-.035-.018.067-.108.008-.024-.043.093-.083-.03-.151-.017-.076.008-.034-.05-.085-.024-.042.009-.033-.09-.06.016.075 0 0 .007.109-.09-.06-.082-.094-.13-.177l.008-.035.009-.032c-.064-.16-.13-.178-.287-.256l.069-.124c-.124-.069-.057-.052-.199-.053.06-.091.051-.058.003-.142-.17-.296-.199-.054-.197-.196l.027-.1c.141.003.042-.024.183-.022-.045.052-.065.06-.071.06.002.004.007.011.011.031.332.09.383.032.566.01.108-.007.174.011.283.005.141.002.117-.04.249-.005l-.058-.05.01-.034-.05-.084c.19.087.016.075.281.146.042-.024.067.018.142.003l.117-.04.033.01c.174.01.207.02.349.021l.075-.015.126-.073c.042-.024 0 0 .051-.057l.082.093c.192-.055.107-.007.174.011.35.023.316.014.352-.12l.1.028c.014.075-.043.024.048.084.05-.058.05-.058.125-.073l.1.026.649-.038.033.008.033.01.142.002.053-.2c-.157-.078-.007-.109.033.01.015.075-.01.032-.011.174.183-.022-.033-.009.15-.03l.075-.016.033.009.117-.04.034.009c.099.027.066.018.141.002l.192-.055c.16-.064.09.06.35.023.074-.016.108-.007.1-.115.05.084.05.084.181.12l.018-.067a.97.97 0 00.434-.026l.324-.02.033.01.01-.034.216-.013c.1.026.066.018.14.002.11-.006.034.01.142.003l.26-.038c.14.003.2-.088.498-.008l-.057-.051c-.015-.075.009-.034-.015-.075l.256.104c.026-.1.026-.1-.032-.15l.166.044c-.084.048-.075.015-.059.09.159-.064.216-.012.375-.077.109-.006.034.01.109-.006.457.016.318-.128.517-.075.108-.007.057.051.207.02.06-.09-.174-.011.053-.2.124.07.007.11.106.136.124.07.108-.006.108-.006.1.026.133.035.216-.013l.518-.075.099.026-.016-.075-.048-.084c.166.044.142.002.139.144l.117-.04.1.027.009-.033c.017-.067-.034-.01.017-.067.2.054.109-.006.115.102l.084-.048c.042-.025.042-.025.075-.016l.033.01c.175.01.217-.014.343-.087l.05-.057c.157.077.09.06.265.07a.054.054 0 01.008-.007c-.009-.004-.02-.013-.032-.034.01-.034 0 0-.015-.076.382.032-.184.022.24.03l.034.008s.057.051.174.011l.093-.082c.081.094.1.027.232.063l-.024-.042c-.073-.127-.024-.042-.015-.076.057.051.09.06.19.087l.342-.086c.066.018.141.002.208.02l-.025-.042c.017-.067-.057-.051.017-.067.127-.072.067.018.058.052l.1.026c.077-.157.05-.057.159-.064 0 0 .408-.068.54-.032-.105-.136-.099-.027-.105-.136.133.036.313.156.415.04.132.036.208.02.4-.035l.075-.015.042-.024c.298.08.009-.034.25-.004l-.025-.043c-.057-.05-.075.016-.015-.075.128-.215.02.326.225-.046.149.11 0 0 .05.084.024.042-.124-.069.024.042a.348.348 0 00.039-.05c.004-.007 0-.005 0 0-.001.009.005.025.077.01l.601-.123s.066.018.102-.115l.033.008c.082.094.058.052.19.087l-.057-.05-.016-.076c.19.087.123.069.331.09.087-.192-.012-.218.161-.207l-.026.1c-.017.066-.042.024-.017.066.075-.015.084-.048.126-.073l.291-.029.375-.077c.109-.006-.074.016.034.01l.042-.025.135-.106a.695.695 0 01-.041.074c.004 0 .01.005.014.025.075-.015.108-.006.184-.021.15-.031.066.017.126-.074.116-.04.099.027.24.03l.244-.113.098.027.027-.1c.148.11.1.027.241.029.108-.007.075-.016.216-.013l.084-.049.033.009.418-.101c.042-.025.075-.016.117-.04.3-.062.274.038.376-.077l.099.026c-.024-.042.075-.015-.09-.06l.017-.066c.133.035.124.069.2.053l.408-.068c.117-.04.066.018.16-.064l.14.002.033.01.084-.05.076-.015c.075-.015.033.009.075-.015.108-.007.15-.031.2-.089l.027-.1c.124.07.09.06.03.151.118-.04.052-.057.184-.022l-.072-.126c.132.035.123.069.232.062l.492-.117.034.009.084-.049c.074-.015.107-.006.15-.03.441-.06.095-.224.335-.196l-.035.134.225-.047c.085-.048.094-.082.193-.055.084-.049.048.084.068-.124l.025.042.032.01c.034.008.058.05.133.035.093-.082.051-.058.012-.176.09.06.066.018.072.127l.067.018c.06-.09-.049-.084.117-.04l-.03-.15c.065.017.065.017.104.135.102-.115.043-.025.235-.08l.05-.058.034.01c.126-.073.066.017.226-.047l.234-.08c.06-.09.198.054.309-.095l.009-.033c.132.036.357-.01.516-.075l.151-.03c.083-.05.074-.016.15-.031.16-.064-.09-.06.093-.082.057.051-.01.033.066.018.118-.04.1.026.102-.116.09.06.007.11.349.023l.009-.034.309-.095c.108-.006.034.01.15-.03.268-.07.169-.098.291-.029l.087-.19.067.017-.018.067c.316.014.26-.18.525-.108l.036-.133c-.09-.06-.075.015.003-.142.015.075.015.075.114.102-.05.058-.017.067-.06.091.166.045.3-.062.451-.093.042-.024.084-.048.15-.03l.027-.1c.058.05.081.093.132.035.136-.106-.042.025.07-.124 0 0 .034-.133.014.076l.067.018c.027-.1.05-.058.05-.058l.043-.024c.092-.082-.115-.103.125-.073.016.075-.092.082.09.06.118-.04.103-.116.385-.111L75 64.382c-.049-.085-.093.081-.03-.151.09.06.032.009.08.093l.04.118c.1.026.033.009.109-.007.183-.022.126-.073.144-.14.057.051.057.051.157.078.11-.148.077-.157.318-.128.05-.058-.007-.109.143-.14a.56.56 0 01-.041.075c.004 0 .01.004.014.025l.084-.049a.522.522 0 01.058-.001l.003-.002c.001-.002.004-.006.014-.012l.025-.001.05-.014c.01-.034.019-.067.184-.022-.025-.042.038-.275.073-.408.139.144.009-.034.022.184.016.075-.009.033.016.075l-.018.067c.267-.07.15-.031.144-.14.057.051.057.051.157.078-.074-.127-.034-.009-.04-.118l.14.003-.008.033.777-.254c.077-.016.034.009.077-.016l.05-.057c.042-.025.05-.058.093-.082.127.32.162.721.206 1.09.044.367.088.736.123 1.137.132.036.432-.026.54-.032.031.15.037.26.027.434l.081.094.033.009.01-.034c.06-.09.11-.148.242-.113-.185.164-.133-.035-.152.173.282.005.243-.112.508-.041-.024-.042.009-.033-.007-.109l.067.018c.006.109-.01.033.057.051.033.009.042-.024.042-.024l.075-.016.117-.04.084-.048.01-.034c.278-.245.18.12.368-.185.084-.049.01-.034.109-.007-.04-.117.075-.016-.073-.126l.174.011c.054-.2.122-.324.2-.481.148-.424.061-.233.123-.466.036 0 .058 0 .071.002l.031-.117.045-.166.262-.715c.062-.232.083-.048.137-.248l.053-.2c-.058-.05-.025-.041-.109.007.065-.158.041-.191.032-.197-.004-.002-.006 0 0 0l.022-.002a.092.092 0 00.019-.006c.031-.013-.02-.027 0 0a.187.187 0 00.014.015c.057.05-.003.142.1.027l.052-.2c.335-.053.175.011.475-.05.226-.047.157.077.169-.098l.265.071-.04-.117c.12.032.097.055.19.085l-.064-.158c.132.035.123.069.172.153l.967-.168c.575-.023.085-.048.476-.05.066.018-.009.033.066.018l.041-.024c.109-.007.25-.005.335-.053a.308.308 0 01.174.011c.225-.046-.182-.12.068-.124.076-.016.076-.016.1.027l.018-.067c.19.087.148.111.34.056l.174.011c.117-.04.033.01.126-.073l.133.036.075-.015c.083-.05.018-.067.159-.065l.017-.066c.058.051.091.06.19.086.01-.033.043-.024.051-.057l.034.009.009-.033c.042-.025 0 0 .066.017l.075-.015.066.018s.042-.025.075-.016c.226-.046.192-.055.3-.061.043-.025.25-.004.316.013l-.033-.009-.073-.126.2.053c.108-.006.014.076.093-.082.256.105-.067-.017.113.102l.109-.006c.117-.04.126-.073.292-.029l-.05.45c-.015.09-.031.151-.047.195-.12.518-.212 1.196-.317 1.704-.056.341-.287 1.74-.374 1.932l-.357 2.006-.156.85a.899.899 0 00.544-.175c.15-.03.084-.049.191-.055.059.051.059.051.023.184-.027.1-.07.124-.128.215l.066.018c-.107.4-.041.416.22.238.11-.149-.009.033.159-.064.033.009.075-.016.075-.016.051-.058.051-.058.093-.082.076-.016.034.009.085-.049.042-.024.033.01.059-.09l.132.035c.07-.124.13-.215-.027-.293l-.103.116c.045-.167-.024-.043-.013-.218.124.069.208.02.238.171l.034.01.016.075c.052-.2 0 0 .068-.124.153-.173.044-.167.168-.098.003-.142-.024-.042-.022-.184.09.06.042-.025.081.093.105-.257.045-.166.171-.24l.01-.032.118-.182.051-.058.266-.463-.1-.027c.045-.166.093-.082.142.003l.267-.606c.173-.38.346-.762.462-1.195l-.066-.017c-.016-.076-.016-.076.001-.142l.036-.133c.166.044.058.05.166.044l.168-.632c.054-.2.122-.323.194-.59.088-.332.172-.38.296-.847.071-.265.062-.232.095-.223l.134-.5c.042-.024.033.01.05-.057l.364-.83a.066.066 0 00-.008-.006c-.002.002-.008.002-.025-.002l-.076.015c.027-.1.02-.208.096-.224.084-.048 0 0 .024.043.049.084-.042.024.049.084.068-.124.146-.281.215-.406.077-.157.16-.206.238-.363l-.033-.009c-.066-.018-.066-.018-.049-.084.166.044.124.069.217-.013l.195-.198c.153-.173.078-.157.218-.155-.048-.084-.048-.084-.063-.16.099.027.066.018.123.07.051-.058 0 0 .06-.092.232.063.082.094.25-.004.159-.064.225-.046.276-.104l.007-.008c-.008-.003-.02-.012-.031-.034-.005-.013-.01-.024-.012-.034-.052-.146.002.073 0 0a.271.271 0 00-.004-.041c.199.053.215.129.358-.01l-.075.015a.48.48 0 00-.051.001c-.04.005.003.016 0 0a.069.069 0 00-.015-.02s-.109.007.05-.057c.043-.024.01-.033.109-.006l.142.002c.065.018.116-.04.233-.08.085-.048.118-.04.217-.012-.045.166-.087.19-.13.356-.156.315-.238.756-.334.98a1.3 1.3 0 00-.13.358c-.036.132-.317.52-.332.98-.076.015-.01.033-.142-.003a.495.495 0 01-.148.423l.1.027-.028.1-.1-.027c-.079.3-.273.497-.27.748-.15.03-.024-.043-.238.363l-.379.754c.133.035.108-.007.073.126-.166-.044-.115-.102-.201.088-.07.125-.07.125-.039.276-.224.046-.081-.094-.176.13l-.334.588.066.018c-.027.1-.06.09-.06.09-.068.124.015.076-.038.276-.123-.07-.057-.052-.022-.185l-.099-.026c-.053.2-.206.372-.317.52l-.026.1.04.118c-.175-.012-.252.146-.297.312-.126.073-.042.025-.144.14-.077.157-.152.173-.28.388l-.018.066-.01.034-.008.033-.042.024-.144.14-.009.033c-.263.321-.121.324-.223.439-.069.124-.009.033-.093.082-.16.064.017-.067-.117.04a.65.65 0 00-.137.248l-.255.288c-.05.058.027-.1-.06.091-.183.022-.068.124-.263.321-.176.13-.262.321-.389.395-.093.081-.009.032-.126.072-.002.142-.018.067-.086.191l.066.018-.566.525c-.363.295-.188.306-.414.352l-.17.24-.06.09-.032-.009c-.018.067-.018.067-.06.091.09.06.042-.024.072.127l.03.15c-.156-.077-.072-.126-.178-.262-.06.092-.042.025-.078.158-.107.007-.032-.008-.251.146-.144.14-.06.091-.071.266-.09-.06-.066-.018-.115-.102-.036.133-.027.1-.12.181-.076.058-.071.035-.052.007l-.014-.024c-.026.1-.018.067-.068.124l-.01.034c-.083.048-.159.063-.177.13-.061.233-.016.067-.068.124-.026.1.03.151.03.151.01-.033.034.01.034.01-.264-.072-.217.012-.384.11-.127.073-.1-.027-.21.121l-.018.066c-.162.206.12-.181-.093.083l-.116.04c-.169.097-.018.065-.103.115l-.395.285c-.22.155-.166-.044-.222.297-.09-.06-.057-.05-.132-.036-.076.016-.043.025-.093.082l-.294.171c-.093.082-.335.195-.338.337l-.108.006a.57.57 0 01-.151.133l-.036.031c-.083.05-.074.015-.125.073l-.127.073c-.075.016-.125.073-.21.122-.194.198-.207-.02-.314.38-.081-.094-.033-.01.012-.176l-.471.301c-.195.197-.033-.009-.252.146.023.184.1.027.046.226l-.205-.162c-.06.091-.01.034-.093.082l-.126.073-.009.033-.159.064.095.311c-.067-.018-.09-.06-.148-.111-.04-.118-.057-.05.06-.091l-.1-.027c-.117.04-.21.122-.35.12-.004.141.066.017.03.15-.027.1-.051.058-.126.073.077-.157.084-.048.068-.124-.075.016-.042.025-.117.04l-.075.016-.084.048-.168.098-.167.084-.001.014a.41.41 0 00-.074.024l-.127.064-.009.033c-.05.058.024.042-.084.049l.018-.067c-.52.218-.188.306-.52.218.025.04.025.04.016.074l-.007.03c-.004.034.012.011 0 0-.004-.006-.015-.01-.035-.006-.062.02-.095.033-.11.04.123-.006.021.015-.005.012l.013.064c-.033-.009-.009.034-.09-.06-.102.115 0 0-.159.064-.084.048-.193.055-.253.146-.108.007-.174-.011-.05.058-.069.124-.042.024-.11.148-.058-.05-.034-.009-.05-.084l.085-.049c-.166-.045-.066-.018-.109.007-.15.031-.11.149-.225.046.014.067.027.085.032.088.004.003.005 0 0 0-.004.001-.012.006-.025.02-.075.016 0 0-.125-.068-.068.124-.083.048-.218.154.09.06.042-.024.081.094l-.018.066-.065-.017c-.022-.184-.148-.111-.148-.111l-.528.25c-.133-.036-.184.021-.376.077l-.009.033-.033-.009-.242.113c-.22.155-.134-.035-.502.15-.169.098-.16.065-.343.086l-.427.135-.015.017c.005 0 .009.006-.003.05a.127.127 0 00-.005.03c-.006.062.086-.097 0 0l-.003.003c-.214-.129-.192.056-.484.083-.109.007.033.01-.075.016-.108.007-.066-.017-.183.022l-.3.062c-.118.04-.067-.018-.112.148l-.066-.017c.078-.158.084-.049-.006-.11-.102.116-.334.054-.51.184-.243.113-.124-.068-.376.078-.108.006-.15.03-.283-.005-.044.166.015.076-.044.166-.091-.06-.033-.009-.048-.084l.008-.034c-.117.04-.1-.026-.258.037l-.01.034c-.159.064-.108.007-.183.022-.207-.02 0 0-.141-.003-.525.108-.069.124-.327.162l-.04-.118c-.06.091-.009.034-.226.047l-.158.064-.067-.018-.84.094c-.109.007-.359.011-.419.102l-.133-.035c.032.15-.026.099.207.162l-.01.033c-.132-.036-.099-.027-.207-.02-.04-.118-.058-.052-.022-.184l-.066-.018c-.051.058-.018.067-.06.09-.247-.137-.142-.002-.376.078-.007-.109.017-.066-.073-.127-.086.19-.05.058-.117.04l-.066-.018-.259.038a.305.305 0 01-.173-.012c-.208-.02-.193.056-.368.044l-1.77-.013c-.058-.05.074-.016-.091-.06l-.018.067-.133-.036c-.096.224-.042.024.013.217-.165-.044-.157-.078-.046-.226l-.1-.027c-.423-.007-.33-.09-.408.068l-.066-.017c-.03-.151-.057-.051-.232-.063l-.505-.1c-.094.082-.076.016-.111.149l-.1-.027c.046-.052.066-.06.072-.06-.003-.003-.008-.011-.012-.031-.199-.054-.075.015-.217.012l-.198-.053c-.605-.127-.457-.016-.822-.114-.166-.045-.274-.038-.415-.04l-.042.024c-.108.006-.066-.018-.132-.036l-.058-.051c-.057-.05 0 0-.066-.017-.066-.018-.142-.003-.175-.012l-.232-.062c-.496-.134-.547-.076-.879-.165l-2.814-.758c-.124-.068-.024-.042-.148-.11-.223-.097-.117.039-.612-.237.004.25.106.136-.292.029l.009-.034c.1.027.133.036.208.02-.214-.128-.291.029-.505-.1.11-.148-.01.034.083-.048a.112.112 0 01.014-.014.119.119 0 01-.005-.02l-.737-.163c.042-.024 0 0 .075-.015l.199.054c.035-.133.008-.034-.05-.085-.098-.027-.173-.011-.24-.03-.19-.086.142.003-.147-.11-.166-.045-.133-.036-.257-.104l-.057-.052c-.133-.035-.117.04-.223-.096-.124-.068-.024-.041-.223-.095-.323-.122-.28-.147-.404-.216-.066-.018-.166-.044-.223-.095l-.712-.379-.006.008c-.135-.059-.309-.167-.475-.264l-.3-.159c-.18-.12-.074.016-.34-.056.06-.091.01-.033.085-.048l.074-.016c-.198-.053-.156-.078-.313-.156l.009-.033-.066-.017c-.148-.112-.223-.096-.248-.138l-.156-.079c-.066-.017 0 0-.058-.05-.286-.256-.264-.072-.286-.256l-.01.034-.116.04c.06-.092.075-.016-.007-.11-.245-.279-.28-.146-.388-.14.045-.05.065-.06.072-.06-.004-.002-.008-.01-.013-.03-.199-.054-.015-.076-.247-.139l-.015-.075c-.175-.011-.051.058-.338-.197l-.033-.01-.263-.213-.123-.068-.018.066c-.133-.036-.124-.07-.163-.187l.009-.033c-.133-.035-.109.006-.241-.029l.075-.015c.051-.058-.009.033.06-.092-.108.007-.166-.044-.313-.155l.008-.033c-.18-.12-.18-.12-.163-.187-.165-.045-.223-.096-.313-.155l-.082-.094c-.024-.042-.049-.084-.082-.093l-.11.148c.062-.233.086-.19-.128-.319-.344-.307.002-.142-.429-.258.01-.033.085-.049.085-.049l.014-.013a.146.146 0 01-.005-.02c-.371-.207-.148-.111-.32-.264l-.402-.358.01-.033-.164-.186c-.115-.103-.124-.07-.148-.112a.733.733 0 00-.041-.022c-.122-.055.096.181 0 0l-.017-.029c-.072-.127-.262-.213-.32-.264-.024-.042-.015-.076-.039-.118l-.196-.195c-.164-.187-.07.124-.148-.112-.057-.05-.033-.008-.024-.042l-.024-.042c-.04-.118-.042.025-.04-.118-.117.04-.05.059-.192.056z" fill="#FFB800"/><path fill-rule="evenodd" clip-rule="evenodd" d="M49.246 6.974l.067.018-.018.066-.067-.018.018-.066zm5.509-3.616c-.066-.017 0 0-.075.016-.108.006.033.009-.108.006-.102.116-.117.04-.336.195l-.369.186c-.135.106-.192.055-.295.17-.068.125-.059.091-.125.074-.117.04.06-.091-.144.14-.09-.06-.033-.01-.09-.06-.027.099-.027.099-.12.18-.252.147-.351.12-.411.211-.084.049-.069.124-.345.228l-.042.025-.075.015c-.075.015.009-.033-.076.015-.092.082-.05.058-.085.191l-.133-.036c.015.076-.018.067.006.11-.041.023-.074.014-.116.039-.16.064-.034-.01-.16.064l-.102.115-.041.025c-.204.23-.202.088-.345.228-.051.057-.009.033-.051.057l-.033-.009c-.142-.002-.042.025-.184.022l-.026.1.159-.064c-.06.09-.102.115-.153.173-.159.064-.126.073-.225.046l.035-.133c-.084.049-.066-.018-.102.115-.02.209.118-.04-.01.176-.078.157-.076.015-.076.015-.057-.051.127-.073-.123-.069.021.184-.064-.16.015.075.033.01.1.027-.077.158a.478.478 0 01-.135.106c-.21.122.018-.066-.136.106-.05.058.043-.024-.04.025l-.01.033-.066-.018c-.286.137-.051.058-.12.182-.017.066-.083.049-.126.073-.035.133-.008.033-.11.148-.091-.06-.016-.075-.14-.144l.047.226c-.15.031-.025-.042-.217.013l-.018.067-.075.015-.009.034c.024.042.033.009.007.108-.153.173-.135.107-.08.3.024.042.016.075.031.15l.064.16.398.107.106-.399c.125-.073.554.185.936.217l.33.089.079-.158.07-.266c.233.062.431.116.621.203.166.044.44.082.638.136l.078-.158.07-.266c.498.134.787.247 1.26.339l.076-.157.063-.233 1.226.33.086-.191.062-.233.663.178c.223.096.406.074.604.127l.078-.157.062-.233c.265.072 1.043.352 1.276.272.15-.03.283.005.448.05.07-.124.093-.082.202-.089l.481.058c.111-.148.027-.1.259-.037l.053-.2.331.09.599.018c.165.045.123.069.216-.013l.638.136.063-.233.397.107.11-.148.838.19.115-.433c.199.053.52.176.629.17.208.02.43.115.63.169l.114-.433c.166.045.522.176.621.203.217-.013.407.074.639.136l.148-.424c.199.054.488.167.62.203.208.02.44.083.638.136l.15-.423c.397.107.644.244.993.267l.283.005.13-.357c.2.053.456.158.621.202.174.012.406.074.605.128l.14-.39c.23.062.454.157.62.202l.638.136.148-.423c.365.097.678.253 1.004.234l.282.004.121-.323.332.089c.356.131.223.095.596.16.108-.006.232.063.331.09l.116-.433c.398.107.512.21.927.25.108-.007.232.062.364.098l.035-.134c.166.045.157.078.241.03l.01-.034.63.028c.103-.115-.005-.109.194-.056.075-.015.197.054.297.08.06-.09.093-.081.193-.055.008-.033.008-.033.05-.057.019-.067.052-.058.06-.091.133.036.265.071.406.074l.034.009c.108-.007.075-.016.174.01l.01-.032c.05-.058.041-.025.084-.05.165.045.297.081.447.05.034.01.076-.015.109-.006.075-.016 0 0 .134-.107l.299.08c.066.019.033.01.075-.015l.183-.022c.109-.006-.018.067.093-.082.397.107.38.174.457.016.265.072.124.07.3-.061.299.08.29.113.558.042.225-.046-.007-.108.523.034.059-.09.05-.057.158-.064.109-.006-.008.033.103-.115l.331.09c.066.017.032.008.075-.016l.033.009.042-.025.108-.006c.283.004-.048-.085.391-.002.199.053.025.042.174.011l.042-.024c.076-.016.067.018.109-.007.075-.015 0 0 .135-.106.297.08.181.12.448.05l.226-.047c.234-.08-.184.022.04-.024.176.011.357.131.54.11.076-.016.109-.007.19.086.366-.044.24.029.223.095.223.096.192-.055.43.116.058.051.125.07.181.12.054-.2.043-.024-.063-.16l-.082-.093c-.18-.12-.117.04-.148-.11l-.1-.028.019-.066.042-.024-.142-.003-.452-.3c-.024-.042-.024-.042-.058-.05-.147-.112-.123-.07-.138-.145l-.115-.102c-.265-.072-.157-.078-.47-.234-.148-.11-.1-.027-.106-.135-.133-.036-.066-.018-.124-.07l-.205-.161c-.048-.085-.033-.01-.04-.118-.216.013.16-.064-.042.024-.159.064-.01.034-.347-.164-.156-.078-.09-.06-.213-.13l-.214-.128c-.075.015-.01.033-.067-.018l-.024-.042c-.198-.053-.123-.069-.28-.147l-.18-.262c-.462-.124-.408.069-.43-.116-.231-.062-.282-.004-.204-.162-.109.007-.175-.011-.308-.047l-.741-.413c-.016-.076-.051.057.026-.1-.198-.053-.24-.03-.406-.074-.124-.069-.214-.128-.43-.115-.298-.08-.538-.252-.877-.308.072.127-.142-.002.28.147.166.045.115.102.196.196-.156-.078-.123-.07-.297-.08-.199-.054-.09-.06-.224-.096-.09-.06-.43-.116-.563-.152l-.078.158c-.165-.045-.173-.012-.282-.005l-.364-.098-.035.133a.373.373 0 00-.175-.012l-.066-.017c-.01.033-.01.033-.042.024-.109.007-.166-.045-.308-.047-.23-.062.058.051-.24-.03a.96.96 0 01-.256-.104l-.054.2c-.23-.062-.19-.087-.267.07l-.25.005c-.309.095.175.011-.075.015a2.77 2.77 0 01-.728-.196l-.053.2-.232-.063c-.069.124-.093.082-.21.122l-.034-.009-.879-.165-.052.2c-.332-.09-.133-.036-.326.02l-.233.079-.034-.01c-.283-.004-.497-.133-.762-.204l-.053.2-.232-.063-.035.133c-.034-.009-.132-.036-.174-.011-.109.006.009-.034-.076.015l-.075.016c-.283-.005-.497-.134-.761-.205l-.054.2c-.33-.09-.132-.037-.258.036-.126.074-.166-.044-.226.047l-.43-.116-.036.133-.43-.116c-.044.166-.027.1-.225.046l-.07.125-.43-.116c-.068.124.057.05-.159.064l-.132-.036a.583.583 0 01-.332-.089l-.086.19-.199-.053-.035.133-.43-.116c-.06.091.048.085-.151.031l-.506-.1-.044.166-.283-.005-.1-.026-.3.062c-.183.021-.49-.025-.655-.07-.163.206-.06.09-.352.12l-.033-.01c-.15.031.033.01-.075.016l-.066-.018c-.01.033-.01.033-.042.024l-.034-.009c-.141-.002-.258.038-.432.026-.133-.035-.265-.07-.374-.064-.143.14.064.16-.3.061l-.009.034-.442.06c-.15.03-.457-.017-.647-.104l-.077.158c-.1-.027-.1-.027-.175-.012l-.033-.009s-.009.034-.042.025l-.716.021-.364-.098-.044.166c-.2-.053-.133-.035-.284-.004l-.107.006-.033-.009-.259.038c-.291.028-.78-.139-1.078-.22l-.113.291c-.066-.017-.099-.026-.174-.01-.457-.017-.647-.104-1.111-.228l-.122.323-.821-.114c-.455-.158-.42-.291-.552.208a.308.308 0 00-.175-.011c-.208-.02.216-.013-.108.006-.109.007-.076.016-.2-.053-.012-.218.088-.19.098-.366l-.033-.01.01-.032c-.094.082-.01.033-.118.04zm31.298 4.037c-.066-.017.033.01-.1-.026-.056-.051-.09-.06-.156-.078-.095.224-.093.082-.234.08l-.108.006-.067-.018c-.274-.038-.313-.156-.613-.094l-.033-.009-.193.055c-.126.074.048.085-.448-.049-.05.058-.15.031-.234.08l-.75.012s-.041.024-.075.016l-.282-.005-.009.033-.433.026-.033-.009-.65.04c-.032-.01-.174-.012-.207-.02-.25.003.033.008-.15.03l-.825.028c-.116.04-.017.066-.225.046-.49-.025-.183.022-.465.017l-.51.042c-.031-.01-.031-.01-.064-.018l-.01.033c-.207-.02-.15.031-.358.011-.282-.005-.247-.138-.333.053l-.398-.107c-.053.2-.077.157-.276.104l-1.026-.276-.14.39-1.268-.306-.14.39-1.267-.305-.14.39-1.225-.33c-.169.633-.05.45-1.407.085-.169.632-.049.45-1.407.085l-.14.39-.265-.07c-.24-.03-.225.045-.433.025-.075.016-.108.007-.183.022l-.109.007c-.032-.01-.074.015-.107.006l-.65.04-.033-.01-1.407.085a221.36 221.36 0 00-.232-.062l-.07.124c-.297-.08-.38-.031-.606.015l-.108.006a1.738 1.738 0 01-.59-.051l-.069.124c-.397-.107-.307-.047-.532 0l-.066-.019-.574.024-.033-.009-.01.033-.183.022c-.033-.009 0 0-.075.016l-.066-.018-.4.035c-.108.006-.202.088-.235.08l-1.2-.288-.08.3c-.331-.09-.157-.079-.325.019-.199-.054-.383-.032-.54-.11l-.462-.124-.072.266-.198-.054c-.078.158-.018.067-.102.116l-1.036-.243-.07.266-.2-.054a.261.261 0 01-.102.115l-.993-.267c-.062.233-.08.3-.312.237-.009.033-.009.033-.05.058-.018.066-.009.033-.051.057l-.994-.267-.113.29c-.232-.062-.258.038-.258.038l-.606-.127-.086.19-.232-.062-.217.013-.033-.01-.032-.008c-.184.022-.066-.018-.15.03l-.01.034s-.008.033-.041.024l-.572-.118-.087.19c-.232-.061-.29-.113-.439-.082-.226.047-.133-.035-.259.038l-.622-.061c-.095.224-.054.2-.319.128-.165-.044-.225.047-.424-.007l-.092.082-.573-.118-.086.19c-.199-.053-.331-.089-.515-.067-.14-.002-.108.007-.2.089l-.44-.083-.166-.044c-.126.073-.03-.151-.101.115l-.365-.098-.234.08c-.117.04.017-.067-.084.048 0 0-.036.133.205.162.066.018.175.012.283.005l-.027.1-.026.1c.033.009.183-.022.061.301-.13.357-.022.35-.148.424.002-.142.088-.333.106-.4.12-.181.068-.123.011-.174 0 0-.132-.036-.163.348.021.184.012.217-.04.417-.081.299-.092.474-.163.74-.069.124-.06.091-.095.224.033.01.123.069.113-.29l1.367.332.115-.433 1.292.348.106-.4 1.292.348.116-.432 1.258.339.115-.433 1.292.348.115-.433 1.292.348.116-.432 1.258.338.116-.432 1.29.348.117-.433 1.291.348.116-.433 1.258.34.116-.433 1.292.347.115-.432 1.291.347.107-.399 1.292.348.115-.433 1.259.34.115-.433 1.292.347.116-.432 1.29.348.116-.433 1.259.339.115-.433 1.292.348.116-.432c.86.231.834.331.914.032l.43.116.095-.224.796.214.086-.191.43.116.063-.233.828.223.053-.2.43.116c.036-.133.06-.09.096-.224.828.223.802.323.881.023l.431.116.095-.224c.828.223.801.323.88.023l.432.116.053-.2 1.69.455.115-.432 1.291.348.116-.433 1.292.348.115-.433 1.258.339.255-.823-.265-.07c.051-.059.033.008.093-.083.07-.124.067.018.027-.1-.13-.177-.126.073-.13-.177 0 0 .144-.14.094-.224l-.014-.076c-.067-.017-.033-.009-.058-.05l-.057-.052c-.09-.06-.09-.06-.19-.087.102-.115.075-.015.069-.124-.058-.05.075-.015-.118.04-.04-.117-.015-.075-.163-.186-.09-.06.033.008-.09-.06.042-.025-.024-.043.108-.007l.018-.066-.132-.036c-.07.124-.01.033-.076.015z" fill="#FFB800"/><path fill-rule="evenodd" clip-rule="evenodd" d="M88.58 10.428c.051-.057.01-.033.085-.048l-.085.048zm-40.1 1.152c-.062.233-.056.342-.1.508-.055.342-.144.14-.224.439l.166.044-.16.6c-.011.174.007.108.064.159l.089-.333c.063.16.03.151-.023.35l.086-.19c.036-.133.003-.142-.012-.217.062-.233.009-.034.119-.182.009-.033.069-.124.102-.115l.049.084c.009-.033.042-.024.042-.024l.009-.034.021.185c.152-.173-.021-.184.442-.06l.069-.124.43.116c.06-.09.009-.033.117-.04l.392-.002c.258-.037.242-.112.598.019l.068-.124.232.062c.102-.115-.024-.042.15-.03l.509-.042.033.009.033.009.009-.034c.208.02.355.132.441-.059l.232.062c.06-.09.184-.022.4-.035l.259-.037c.357-.01.713.12 1.11.227l.09-.332a.51.51 0 00.207.02c.5-.008.514.067 1.11.228l.09-.333c.198.054.15-.03.324-.02l.383.032.032.009.3-.062c.11-.006.242.03.316.014l.075-.016c.16-.064.09.06.193-.055.53.143.265.072.532 0l.033.01c.109-.007.03.15.127-.073.132.035.322.122.405.073.109-.006.042-.024.084-.048.118-.04.124.069.226-.047.133.036.289.114.406.074.117-.04 0 0 .084-.049l.033.01.043-.025c.108-.007.039.118.125-.073.232.062.28.147.458.016l.033.009c.117-.04.09.06.192-.055l.43.116.036-.134.307.047c.108-.006.232.063.331.09.051-.058.027-.1.07-.125.1-.115.008-.033.158-.064l.515.068.1.026c.324-.02-.065-.16.565.01.026-.1.059-.091.086-.19.066.017.165.044.216-.014l.299.08c.273.038-.023-.184.773.03.152-.173-.056-.193.309-.095l.026-.1.398.107.035-.133.307.047c.108-.006.233.063.331.09l.078-.158c.199.053.157.078.225-.046l.298.08c.166.044.124.069.169-.098l.23.063c.103-.116.118-.04.416.04l.095-.224 1.259.339.089-.333c.165.045.174.012.316.014.282.005.704.154 1.002.234l.09-.333c.463.125.447.05.646.103l.045-.166.43.116c.06-.091.018-.067.216-.013l.07-.124.43.115c.101-.115-.025-.042.15-.03l.508-.042c.108-.006.042-.024.183-.022.284.005.258-.037.508-.041.292-.029.72.229.97.225-.015-.076-.15.03.005-.284.132.036.132.036.24.029l.01-.033c.15-.031.282.005.399-.035l.424.007.033.009c.118-.04-.016-.076.225-.046l.542-.033.01-.033.348.022c.132.036.174.012.324-.02l.009-.033.033.01.193-.056c.285-.137-.118.04.084-.049.147.112.09.06.255.105.109-.007.043-.024.142.002l.114.102c-.039-.117-.099-.026-.096-.168l.415.04.01-.033.065.018c.043-.025.108-.007.15-.031.109-.007-.033-.009.109-.007l.099.027.199.054c.14.002.167-.098.309-.095 0 0-.069.124-.082-.094l.232.063c-.044.166.093-.082.13.177-.072-.126-.132-.035-.207-.02-.285.137.093-.082-.126.073.181.12 0 0 .174.011.1.027.09.06.19.087l-.073-.126c.133.035.359-.011.475-.05.075-.016.075-.016.175.01.06-.09.009-.033.234-.079.141.002.234-.08.231.062.184-.022 0 0 .043-.024.084-.049-.1-.027.084-.049.042-.024-.058-.05.075-.015.066.018.033.009.057.051.1.027.1.027.15-.031.093-.082.385-.11.527-.108.015.076.05-.058-.027.1.166.044.141.002.143-.14l.133.036.018-.067.166.045-.036.133c.084-.049.033.009.093-.082.009-.033-.1-.027.027-.1l.315.014.009-.033.333-.053c.175.011-.15.03.067.018.075-.016.117-.04.174.011.093-.082.226-.046.45-.093l.142.003.033.009.076-.016c.408-.068.075-.015.372.065.003-.142-.056-.051-.006-.109l.1.027c.102-.115-.034-.009.4-.035.008-.033.042-.024.074-.015l.184-.022c.117-.04.084-.05.226-.047.14.003.165.045.258-.037.18.12-.142-.002.114.102.112-.148.418-.101.743-.121.084-.049.15-.031.258-.037.042-.025 0 0 .066.017.076-.015.034.01.076-.015l.842-.094.033.008.216-.013c.009-.033.075-.015.117-.04.1.027.133.036.19.087.051-.057.024.043.018-.066l.315.013c.06-.09-.024-.042.226-.046.15-.03.175.012.324-.02l.034.01.498-.009-.008.034c.142.002.042-.025.166.044.044-.166.029-.242.089-.332-.184.021.033.008-.15.03l-.064-.16-.034-.008c-.088-.202-.163-.187-.27-.322-.13-.178.1.027-.063-.16l-.084.049c-.022-.184-.017.066-.03-.151l-.007-.109-.075.016c-.033-.01-.009.033-.066-.018-.033-.01-.058-.051-.082-.094l-.066-.017c.06-.091.042-.025.092-.082l.093-.082c-.141-.003-.141-.003-.225.046-.007-.109.042-.024-.049-.084l-.032-.01c-.066-.017-.116-.101-.173-.153l-.024-.042-.033-.009-.016-.075c-.147-.111-.229-.204-.32-.264-.014-.076.085-.049.028-.1-.115-.102 0 0-.067-.018l-.057-.051c-.09-.06-.066-.018-.157-.078-.081-.093.026-.1-.14-.144.05.084-.094.224-.094.224.004.25 0 0 .13.177.04.118.042-.024-.027.1-.06.091-.042.024-.093.082l.265.071-.255.823-1.258-.339-.115.433-1.292-.348-.115.433-1.292-.348-.116.432-1.69-.454-.052.2-.431-.117c-.08.3-.053.2-.88-.023l-.096.224-.43-.116c-.08.3-.054.2-.882-.023-.036.133-.06.09-.095.224l-.431-.116-.053.2-.828-.223-.062.233-.431-.116-.086.19-.796-.213-.095.224-.43-.116c-.08.3-.053.2-.914-.032l-.116.432-1.292-.348-.115.433-1.259-.339-.115.432-1.291-.347-.116.432-1.292-.347-.115.432-1.259-.339-.115.433-1.292-.348-.107.4-1.291-.348-.115.432-1.292-.347-.116.432-1.258-.339-.116.433-1.291-.348-.116.433-1.29-.348-.116.432-1.26-.338-.115.432-1.291-.348-.116.433-1.292-.348-.114.433-1.26-.339-.115.432-1.292-.347-.106.399-1.292-.348-.115.433-1.367-.332c.01.359-.08.3-.113.29zm.69-4.449c-.052.058-.094.082-.136.107-.152.172-.161.206-.32.27-.076.015-.034-.009-.085.049-.101.115.04.117-.101.115-.045.166-.153.173-.153.173l-.075.015-.027.1-.05.058c-.06.09-.094.082-.168.097-.087.19-.221.297-.366.436l-.11.149c-.105.257-.27.213-.233.472-.027.1-.042.024.007.109.084-.049.05-.058.102-.115.199.053.156.077.397.107l.464.124.115-.432.994.267.44.083c.092-.082.06-.091.2-.089.184-.022.316.014.515.068l.086-.191.573.118.092-.082c.199.054.259-.037.424.007.265.072.224.096.319-.128l.622.06c.126-.072.033.01.259-.037.15-.03.207.02.439.083l.087-.19.571.117c.034.01.042-.024.042-.024l.01-.033c.084-.049-.034-.009.15-.031l.032.009.033.009.217-.013.232.062.086-.19.606.127s.026-.1.258-.038l.113-.29.994.267c.042-.024.033.01.05-.057.042-.025.042-.025.051-.058.232.062.25-.004.312-.237l.993.267a.262.262 0 00.103-.115l.198.054.071-.266 1.036.243c.084-.05.024.042.102-.116l.198.054.072-.266.463.125c.157.077.34.055.539.109.168-.098-.006-.109.324-.02l.08-.299 1.201.288c.033.008.127-.074.235-.08l.4-.035.066.018c.075-.016.042-.025.075-.016l.184-.022.009-.033.033.01.574-.025.066.018c.225-.046.135-.106.532 0l.069-.123c.198.053.373.064.59.051l.108-.006c.225-.046.31-.095.607-.015l.069-.124.232.062 1.407-.085.033.01.65-.04c.033.01.075-.015.107-.006l.109-.007c.075-.015.108-.006.183-.022.208.02.192-.055.433-.026l.265.071.14-.39c1.358.366 1.238.547 1.407-.085 1.357.366 1.238.548 1.407-.084l1.225.33.14-.39 1.267.305.14-.39 1.268.305.14-.39 1.026.276c.2.053.223.095.276-.104l.398.107c.086-.19.05-.058.333-.053.208.02.15-.03.358-.01l.01-.034.065.018.509-.042c.282.005-.025-.042.465-.017.208.02.109-.006.225-.046l.825-.028c.183-.022-.1-.027.15-.03.033.008.175.01.208.02l.65-.04.032.01.433-.027.01-.033.281.005c.033.008.076-.016.076-.016l.748-.012c.085-.049.184-.022.235-.08.496.134.322.123.448.05l.193-.056.033.01c.3-.063.34.055.613.093l.067.018.108-.007c.14.003.139.145.234-.08.066.019.1.028.157.079l.1.026.05-.057c-.075.015-.075.015-.174-.012.084-.048.141.003.026-.1l-.05.058c-.05-.084-.091-.06-.14-.144-.09-.06-.048-.084-.039-.118l.033.01.008-.034c-.165-.045-.041.024-.216.013-.006-.109.033.009-.04-.118-.057-.05-.09-.06-.18-.12l.009-.033-.329-.23c-.058-.052-.124-.07-.13-.179-.108.007-.034-.008-.151.031-.057-.05-.123-.069-.181-.12-.238-.17-.207-.02-.43-.116.017-.066.143-.14-.223-.095-.082-.093-.115-.102-.19-.087-.184.022-.365-.098-.54-.11-.224.047.193-.054-.04.025l-.226.046c-.267.071-.15.031-.448-.049-.136.106-.06.09-.136.106-.042.025-.033-.008-.108.007l-.042.024c-.15.031.024.042-.174-.011-.44-.083-.108.006-.391.002l-.109.006-.04.025-.034-.01c-.043.025-.009.034-.075.016l-.332-.089c-.11.148.007.109-.102.115-.107.007-.1-.027-.158.064-.53-.142-.299-.08-.523-.034-.268.071-.26.038-.558-.042-.176.13-.036.133-.3.061-.078.158-.06.091-.458-.016-.11.149.017.076-.092.082l-.183.022c-.043.025-.01.034-.076.016l-.298-.08c-.135.106-.06.09-.135.106-.033-.01-.075.015-.108.006-.15.031-.282-.005-.448-.05-.042.025-.033-.008-.084.05l-.009.033c-.1-.027-.066-.018-.175-.011l-.033-.01a1.649 1.649 0 01-.407-.073c-.007.033-.04.024-.059.09-.042.025-.042.025-.05.058-.1-.026-.133-.035-.193.056-.1-.027-.222-.096-.298-.08-.199-.054-.09-.06-.192.055l-.632-.028-.009.034c-.084.048-.075.015-.24-.03l-.036.134c-.132-.036-.256-.105-.364-.098-.415-.04-.53-.143-.927-.25l-.116.432c-.1-.026-.223-.095-.331-.089-.373-.065-.24-.029-.596-.16l-.332-.09-.121.324-.283-.004c-.325.02-.638-.137-1.003-.234l-.148.423-.639-.136c-.165-.045-.388-.14-.62-.203l-.14.39a3.528 3.528 0 00-.604-.127c-.166-.044-.422-.149-.62-.202l-.132.357-.283-.005c-.348-.023-.595-.16-.993-.267l-.149.423c-.199-.053-.43-.116-.638-.136-.132-.036-.422-.15-.62-.203l-.148.424c-.232-.062-.422-.15-.639-.136-.1-.027-.455-.158-.62-.203l-.115.433c-.2-.054-.422-.15-.63-.17-.109.007-.43-.116-.63-.17l-.115.433-.836-.19-.111.15-.397-.108-.063.233-.638-.136c-.093.082-.05.058-.217.013l-.598-.018-.332-.09-.052.2c-.232-.062-.148-.111-.26.037l-.48-.058c-.109.007-.133-.035-.202.089-.165-.045-.297-.08-.448-.05-.234.08-1.011-.2-1.276-.272l-.062.233-.078.157c-.198-.053-.382-.031-.605-.127a842.61 842.61 0 01-.662-.178l-.062.233-.086.19-1.226-.33-.063.234-.077.157c-.473-.092-.761-.205-1.258-.339l-.071.266-.078.158c-.199-.054-.472-.092-.638-.136a3.916 3.916 0 00-.62-.203l-.071.266-.078.158-.33-.09c-.383-.03-.812-.289-.937-.216l-.107.4-.397-.108-.064-.16c-.015-.075-.007-.108-.031-.15-.055-.193-.073-.127.08-.3z" fill="#FFB800"/><path fill-rule="evenodd" clip-rule="evenodd" d="M57.155 13.523l-.1-.027c.093-.082.06-.091.1.027zm7.97.468c.041-.024-.058-.05.107-.006-.042.024.025.042-.108.006zm4.24-.997c-.165-.045-.066-.018-.09-.06.166.044.033.009.09.06zm-21.14.336c-.17.24-.119.182-.148.423l-.274 1.424c-.044.166.005.25-.04.417l-.116.432c.025.043 0 0 .016.076-.026.1-.09.332-.136.64.153-.172.093-.081.104-.256.032-.384.122-.324.158-.457l.07-.266c.08-.3.032-.384.059-.484l.182-.414c.024.042.024.042.015.075l-.054.2s.01-.034.042-.025l.01-.033.041-.024c.051-.058-.057-.051.076-.016l.298.08c.185-.163-.089-.201.939.075l.044-.166.43.115.104-.257.828.223.045-.166.43.116.072-.266 1.258.338.115-.432 1.259.338c-.029.242-.05.058.097.17.056-.342-.066-.019-.02-.327l.1.027c.175.011.066.018.09.06l.046.226.127-.073-.036.133c.053-.2.197-.34.365-.437.144-.139.294-.17.495-.258l-.007-.11-.015-.075c.053-.2.257-.43.449-.485.529-.25.356-.403.778-.254l.017-.066c.208.02 0 0 .193-.056-.069.124-.042.025-.045.167l.067.018c.053-.2-.022-.185.087-.191.059-.091-.049-.085.15-.031l.165.045c.114.102-.015-.076.077.377l.02.326c.015.075.033.009.006.108l-.01.034.04.117c-.009.034 0 0 .016.076.016.075 0 0-.018.066-.005.284.046.227.08.236.09.06.032.008.048.084.097.169-.06.09.114.102l.053.335c.051-.058.075-.015.095-.224.018-.066.06-.09.036-.133-.003.142-.126.073.37.207l.531.142.115-.432c.928.25.316.014 1.011.2l.042-.024c.016.076-.024-.042.127-.072.224-.047.174.01.117-.04l-.036.133c.007.108-.018.066.03.15l.12-.181c.11-.149-.008.033.135-.106.133.035.133.035.241.029l.066.018.01-.034c.032.01.05-.057.032.01.347.164.424.006.716-.022l.058.05c.075-.014.009-.032.066.019l.1.026c-.008-.108.032.01-.041-.117l.1.027c.135-.107.225-.047.51-.184.042-.024 0 0 .075-.015.243-.113.234-.08.358-.011-.015-.075.018-.067-.007-.109.142.003.042-.024.184-.022.084-.048.06-.09.225-.046l.133.036-.04-.118-.033-.009c.1.027.133.036.19.087l.027-.1c.04-.024-.058-.05.108-.007.11-.148-.076.016.2-.088l.085-.048.15-.031c.15-.031.102-.116.099.026.16-.064.06-.09.319-.128l.041-.024c.033.009.075-.016.109-.007l.075-.015c.117-.04.126-.073.234-.08l.034.01.05-.059c.057.052.033.01.057.052.082.093-.098-.027.05.084l.025-.1c.184-.022-.042.024.085-.049.009-.033.126-.073.16-.064l.114.102c.059-.09-.049-.084.108-.006l.026-.1-.124-.069c.133.036.317.014.41-.068.04.117-.051.058.114.102l.018-.066.265.07c-.04-.117-.016-.075-.181-.12l.027-.099c.331.09.15-.03.4-.035.05-.057.125-.073.234-.08-.078.158-.075.016.139.145l-.01.033c.124.069-.09-.06.067.018l.027-.1c-.1-.027-.033-.009-.091-.06-.123-.069-.066-.018-.09-.06l.258-.037.033.009.2-.089c.035.01.035.01.044-.024.107-.007.116-.04.225-.046-.111.148.009-.034-.102.115.307.047.002-.142.283.005l-.03-.151c.008-.034.117-.04.182-.022.075-.016.009-.034.066.018.26-.038-.066-.018.136-.107.042-.024.183-.022.257-.037.043-.024-.057-.051.109-.007.06-.09.126-.073.226-.046.045.226-.07.124.145.253-.004-.25-.212-.27-.028-.293 0 0 .041-.024.032.01 0 0 .01-.034.043-.025l.008-.034.342-.086.067.018.075-.015.066.018c.148.11-.033-.01.049.084 0 0-.132-.036.057.051.003-.142-.023-.042.045-.166.024.042.033.009.09.06.036-.133-.105-.136.195-.197.217-.013.057.05.325-.02.126-.073.04.118.15-.03l.008-.034c.059.051.09.06.19.087l-.04-.118-.032-.009.132.036c.06-.091-.024-.042.127-.073l.075-.016c.107-.006-.033-.009.107-.006l.268-.071c.192-.055.118-.04.307.047l-.04-.118-.033-.008.133.035.492-.117.034.01.075-.016c.108-.007.066.018.125-.073l.1.026.017-.066.133.035c.084-.048.093-.081.226-.046.05-.057.009-.033.116-.04l.034.01.01-.034.14.002.033.01.16-.065.033.01.075-.016.05-.058.1.027c.006.109-.085.049.114.102-.006-.109-.18-.12.027-.1.102-.115 0 0 .118-.04l.233-.08c.142.003.01-.032.175.012l.3-.062c.075-.015.126-.073.208.02.051-.057-.015-.075.093-.081.075-.016.009-.034.066.018.1.026.076-.016.234-.08l.15-.03.1.026c.06-.091.01-.034.117-.04l.367-.044.009-.033c.033.009.066.018.075-.016.142.003.183-.022.3-.061.067.017.067.017.175.01l.009-.032.141.002.442-.06c.042-.024.042-.024.108-.006l.01-.033c.065.018.092-.082.339.056l-.015-.076c.009-.033-.124-.069.108-.006l-.018.066c.166.045.057.051.15-.03-.032-.01-.057-.052-.057-.052-.057-.05-.033-.009-.057-.05.208.02.192-.056.39-.002l.334-.053c.042-.025.084-.049.15-.031.118-.04.018-.067.184-.022-.045.166-.051.058.04.117.26-.179-.076.016.044-.166.219-.155-.16.064.126-.073.075-.015.135-.106.207.02-.037-.26-.174-.011-.13-.177l-.232-.063c.013.218.082.094.082.094-.142-.003-.168.097-.31.095-.032-.01-.132-.036-.198-.054l-.1-.027c-.14-.002 0 0-.108.007-.042.024-.107.006-.15.03l-.066-.017-.009.033-.415-.04c-.003.142.057.05.096.168l-.114-.102c-.099-.026-.033-.009-.142-.002-.165-.045-.108.007-.255-.105-.202.089.2-.088-.084.05l-.193.054-.033-.009-.009.034c-.15.03-.192.055-.324.02l-.349-.023-.009.033-.542.033c-.24-.03-.107.006-.225.046l-.033-.01-.424-.006c-.117.04-.25.004-.4.035l-.009.033c-.108.007-.108.007-.24-.03-.155.316-.02.21-.005.285-.25.004-.678-.254-.97-.225-.25.004-.224.046-.507.041-.142-.002-.076.016-.184.022l-.508.042c-.175-.012-.048-.085-.15.03l-.43-.115-.07.124c-.198-.054-.156-.078-.215.013l-.431-.116-.045.166c-.199-.053-.183.022-.647-.103l-.089.333c-.298-.08-.72-.23-1.002-.234-.142-.002-.15.03-.316-.014l-.089.333-1.259-.339-.094.224c-.299-.08-.314-.155-.416-.04l-.231-.063c-.045.167-.003.142-.169.098l-.298-.08c-.068.124-.026.1-.225.046l-.078.157c-.098-.027-.223-.095-.331-.089l-.307-.047-.035.133-.398-.107-.026.1c-.365-.098-.157-.078-.31.095-.795-.214-.5.008-.772-.03l-.299-.08c-.05.058-.15.03-.216.013-.027.1-.06.091-.086.19-.63-.169-.241-.028-.566-.009l-.1-.027-.514-.067c-.15.031-.058-.05-.159.064-.042.025-.018.067-.069.125-.1-.027-.223-.096-.331-.09l-.307-.046-.035.133-.431-.116c-.102.115-.075.015-.192.055l-.033-.009c-.178.13-.226.046-.458-.016-.086.19-.017.066-.125.073l-.042.024-.034-.009c-.084.05.034.01-.084.05-.117.039-.273-.039-.406-.075-.102.116-.108.007-.225.047-.043.024.024.042-.085.048-.083.05-.273-.038-.405-.073-.096.224-.018.066-.127.073l-.033-.01c-.267.072-.003.143-.532 0-.102.115-.033-.009-.193.055l-.075.016c-.074.015-.207-.02-.315-.014l-.301.062-.032-.009-.383-.031c-.175-.012-.126.072-.324.019l-.09.333c-.596-.16-.61-.236-1.11-.228-.108.007-.141-.002-.208-.02l-.088.332c-.398-.107-.754-.238-1.111-.227l-.259.037c-.216.013-.34-.056-.4.035l-.232-.062c-.086.19-.233.08-.441.06l-.01.033-.032-.01-.033-.008-.508.041c-.175-.011-.049-.084-.15.031l-.233-.062-.068.124c-.356-.131-.34-.056-.598-.019l-.392.002c-.108.007-.057-.05-.117.04l-.43-.116-.07.124c-.462-.125-.289-.113-.44.06l-.022-.184-.01.033s-.032-.01-.041.024l-.049-.084c-.033-.01-.093.082-.102.115-.11.148-.057-.051-.12.182.016.075.05.084.014.217l-.087.19c.053-.199.087-.19.023-.35l-.089.333zm7.664-10.629c.015.076.033.009-.018.067l.018-.067zm3.483-1.344c.042-.025.115.102.024.042 0 0-.108.006-.024-.042zM68.656.219l-.107.006c-.1-.026-.066-.018-.143-.002l-.216.013-.033-.009-.132-.036s-.033-.008-.042.025l-.034-.01c-.066-.017 0 0-.108.007-.207-.02-.231-.062-.348-.022-.142-.003-.225.046-.359.01l-.324.02c-.006-.109.009-.033-.04-.118-.011.176.016.076-.026.1l-.19-.087c.03.151.108-.006.04.118-.132-.036-.11.007-.24-.029-.014-.217.054.193.05-.058l-.208-.02c.03.151.108-.006.04.118-.332-.09-.175-.012-.358.01-.099-.026-.156-.077-.334.053-.123-.069-.081-.093-.214-.129l.015.076.034.009-.01.033.034.009C65.27.27 65.27.27 65.12.3l-.067-.018c-.217.013-.057-.05-.24-.029-.076.016 0 0 .08.093L64.73.303c-.11.148.075-.016-.333.053-.193.055-.175-.012-.374-.065.007.109 0 0 .106.135-.297-.08.016.076-.282-.004-.042.024 0 0-.075.015l-.076.015-.033-.009-.009.034-.098-.027c-.21.122.116-.04-.052.058-.075.015-.033-.01-.108.006l-.484.084-.033-.01c-.075.016.1.028-.108.007l-.033-.008c-.018.066-.26.037-.301.061L62.403.64c-.117.04-.126.073-.376.078l-.084.048c-.006-.108.042-.024-.048-.084-.19-.087-.076.015-.076.015-.008.034.074.127-.167.098-.11.148.042-.025-.3.061-.51.184-.193.056-.419.102-.074.015.042-.024-.04.024-.118.04-.127.073-.26.038-.033-.01.042-.025-.033-.01-.05.058.09.06-.05.058-.111.149.008-.033-.268.071l-.042.024-.075.016c-.066-.018-.015-.076-.109.006l-.009.034-.19-.087.074.127c-.15.03-.06.09-.259.037l-.018.066-.1-.026c-.173-.012-.197-.054-.333.053.115.102-.156-.078.067.017l.024.042.033.01c-.108.006-.108.006-.184.021-.075.016-.108.007-.182.022a.794.794 0 00-.295.17l-.099-.026c.069-.124.159-.064-.04-.118-.044.167-.009.034-.059.091-.045.167-.069.124-.345.228l-.226.047c-.042.024.142.002-.042.024-.084.049-.084.049-.191.055-.06.091-.01.033-.16.064l-.762.33-.033-.009-.16.064c-.05.058-.017.067-.059.091-.057-.051-.024-.042-.124-.069.025.042-.009.033.007.109l-.067-.018-.168.097c-.032-.009 0 0-.074.016-.085.049.033.009-.043.024-.117.04 0 0-.075.016-.075.015-.006-.11-.075.015-.024-.042-.033-.009-.09-.06.006.109.033.009-.027.1-.068.124.048.084-.093.082l-.126.073c-.12.182-.057-.051-.252.146-.22.155-.319.128-.468.16-.027.099-.027.099-.078.156.108-.006.024.043.117-.04l-.009.034.033.009c-.01.175-.11.148-.097.366.123.069.09.06.199.053.324-.02-.1-.027.108-.006.075-.016.108-.007.175.01.132-.498.097-.365.552-.207l.821.114.122-.323c.464.124.654.211 1.11.227.076-.015.11-.006.175.011l.113-.29c.299.08.787.247 1.078.219l.259-.038.033.01.108-.007c.15-.031.084-.049.283.004l.044-.166.364.098.716-.021c.033.009.042-.025.042-.025l.033.01c.075-.016.075-.016.175.01l.077-.157c.19.087.497.134.647.103l.442-.06.01-.033c.363.099.156.078.3-.061.108-.007.24.029.373.065.174.01.29-.029.432-.027l.034.01c.033.008.033.008.042-.025l.066.018c.108-.007-.075.015.075-.016l.033.01c.291-.03.19.086.352-.12.165.045.472.091.655.07l.3-.062.1.026.283.005.044-.166.506.1c.199.054.09.06.15-.03l.43.115.036-.133.2.054.085-.19c.09.06.223.095.332.088l.132.036c.216-.013.09.06.159-.064l.43.116.07-.125c.198.054.18.12.225-.046l.43.116.035-.133.431.116c.06-.091.1.027.226-.046s-.073-.127.258-.038l.054-.2c.264.072.478.2.761.206l.075-.016c.085-.049-.033-.009.076-.015.042-.025.14.002.174.011l.035-.133.232.062.053-.2c.265.072.48.201.763.206l.033.009.233-.08c.193-.055-.006-.109.326-.02l.052-.199.88.165.032.009c.118-.04.142.002.211-.122l.232.063.053-.2c.19.087.488.167.728.196.25-.004-.234.08.075-.015l.25-.004c.077-.158.036-.133.267-.071l.054-.2c.124.07.19.087.256.105.298.08.01-.033.24.03.142.001.2.053.308.046.033.009.033.009.042-.024l.066.018c.075-.016.142.002.175.01l.035-.132.364.098c.109-.007.117-.04.282.005l.078-.158c.133.036.473.092.563.152.133.035.025.042.224.095.174.012.14.003.297.08-.081-.093-.03-.15-.196-.195-.422-.149-.208-.02-.28-.147.34.056.578.227.877.308 0 0 .017-.067-.007-.11-.563-.15-.148-.11-.545-.217l-.157-.078-.033-.009c-.696-.187-.214-.129-.744-.271-.166-.045-.19-.087-.356-.132l-.43-.116c-.199-.053-.09-.06-.314-.155-.223-.096-.828-.223-1.192-.321l-1.59-.428c-.572-.118-.184.022-.78-.138C72.31.63 71.895.59 71.747.48l-.06.09c-.198-.053-.72-.229-.878-.164-.184.021-.199-.054-.373-.065l-.076.015c-.182.022-.439-.082-.58-.085l-.425-.007-.1-.027c-.432.026-.107.007-.438-.082l-.16.064zm-24.57 12.924c-.042.024-.007-.109-.069.124-.165-.044-.057-.05-.165-.044.015.075-.01.033.048.084l.033.009c-.044.166-.119.182-.179.272l-.009.034-.009.033c-.068.124-.161.206-.206.372-.074.016.058.052-.099-.026-.038.275.018-.067.03.15l-.008.034-.084.048c-.12.182-.071.267-.215.406-.17.24-.086.19-.241.506-.166-.045-.208-.02-.276.104l.216-.014c-.035.133-.104.258-.182.415l-.214.406c-.321.804-.301.596-.43.811.09.06.075-.015.007.109-.036.133-.051.057-.087.19-.044.167-.113.29-.106.4l-.107.399c-.044.166-.104.257-.181.414.159-.064.057.051.152-.173.018-.066-.024-.042.036-.133.006.11.022.184-.023.35.126-.072.064.16.153-.172l1.482.434s.084-.048.108-.006l.024.042c.053-.2.01-.033.093-.082.195-.197.824-2.024.963-2.414.307-.88.594-1.694.9-2.575l-.057-.05c.069-.125.122-.324.131-.358l.1-.507.009-.034s-.034-.009-.025-.042c.01-.033.007.109.01-.033-.013-.218.077-.157-.188-.229l-.449-.05-.035.134-.198-.054c-.063.233-.12.182-.167.49-.02.209-.077.158-.13.357l-.018.067-.208-.02c-.006-.109.002-.142-.013-.218-.093.082-.01.034-.117.04z" fill="#FFB800"/><path fill-rule="evenodd" clip-rule="evenodd" d="M47.527 16.743l-.01.175c-.043.024-.076.015 0 0 .052-.2.01-.175.119-.182-.062.233-.053.2.028.293l.115-.432.331.089c.094-.082.03.15.103-.115.198.053.249-.005.456.016.043-.025.217-.013.217-.013.075-.016.142.002.216-.013.16-.065-.09-.06.184-.023.075-.015.175.012.283.005l.009-.033.466-.017s.075-.015.108-.007c.033.01.075-.015.108-.006l.758-.046c.225-.046.391-.002.59.052.092-.082.03.15.101-.115.1.026.175.011.175.011.25-.004.232.062.48.058.052-.057.01-.033.019-.066l.018-.067c.265.072.117-.04.448.05l.053-.2.762.205c.055.193-.082-.093.024.042.305-.346.18-.807.42-1.17.078.235.006.108.178.261-.06.091-.11.149-.138.249l-.035.133c.016.075.024.042.016.075.044-.166.044-.166.128-.215l.199-.48.036-.134-.127.073-.045-.226c-.025-.042.084-.049-.09-.06l-.1-.027c-.047.308.075-.015.02.326-.148-.111-.127.073-.098-.169l-1.259-.338-.115.432-1.258-.338-.072.266-.43-.116-.045.166-.828-.223-.103.257-.431-.116-.044.167c-1.028-.276-.754-.238-.94-.074l-.297-.08c-.133-.036-.025-.043-.076.015l-.042.024-.009.033c-.033-.008-.042.025-.042.025l.054-.2c.009-.033.009-.033-.015-.075l-.182.414c-.027.1.021.184-.058.484-.01.033-.071.266-.071.266-.036.133-.127.073-.158.457-.01.175.049.084-.104.257zm-.717-7.288c-.045.167-.018.067-.111.149-.051.057-.068.124-.144.14l-.026.1c-.025-.043-.043.024-.007-.11l-.066-.017c-.018.066.006.108-.003.142l-.068.124c-.144.14-.108.006-.162.206-.081-.093-.124-.07-.232-.063l.14.145c-.157-.078-.058-.051-.1-.027-.044.166-.009.033.007.109-.045.166-.051.057-.18.272l-.272.355-.033-.009-.01.033-.041.025-.01.033c-.1.115-.203.23-.246.397l-.073-.127-.027.1c.024.042.033.009.015.075-.017.067-.008.034-.05.058-.027.1-.06.09-.135.106.04.118-.096.224-.206.373l-.009.033-.042.024-.01.033c-.136.249-.06.091-.134.107l-.084.049c-.05.057-.05.057-.078.157.15-.03-.006-.109.118-.04-.095.224-.246.255-.316.521l.008-.033s-.033-.01-.024-.042l.01-.034c-.034-.009.016-.066-.067-.018-.06.091-.003.143.012.218l-.068.124c.108-.006.025.042.117-.04.015.076.007.109.013.218l.208.02.017-.067c.054-.2.111-.148.131-.357.046-.308.104-.257.167-.49l.199.054.034-.133.45.05c.264.07.174.01.186.228-.002.142 0 0-.008.033-.01.033.024.042.024.042l-.01.034-.099.507a1.874 1.874 0 01-.13.357l.057.051c.629-1.292.846-1.84 1.823-2.575-.024-.042-.1-.027.086-.19-.035.133-.01.033-.002.141l.243-.112c-.024-.043-.033-.01.009-.034l-.015-.075-.076.015-.135.107c.045-.167.089-.333.33-.304-.064-.16-.148-.11-.007-.108.095-.224.076-.016.17-.24l.016.076c.024.042-.01.033.09.06.003-.142-.024-.043-.021-.184.15-.032.057.05.134-.107.024.042.107.136.124.07.069-.125-.115-.103.027-.1.06-.092.009-.034.084-.05.117-.04.033.01.093-.081.04.117-.009.033.082.093l.017-.067a.413.413 0 00.21-.121l.066.017c-.129.215.025.043-.046.309l-.21 1.049c.007.108-.041.024.04.117.071-.266.082-.441.163-.74.052-.2.061-.233.04-.417.031-.384.163-.348.163-.348.057.05.108-.007-.01.175-.019.066-.105.257-.107.399.126-.073.018-.067.148-.424.122-.323-.028-.292-.061-.301l.026-.1.027-.1a1.03 1.03 0 01-.283-.005c-.24-.029-.205-.162-.205-.162.101-.115-.033-.009.084-.049l.234-.08.365.099c.07-.266-.025-.042.1-.115l.167.044-.994-.267-.115.432-.464-.124c-.24-.03-.198-.054-.397-.107-.051.057-.018.066-.102.115-.049-.085-.034-.01-.007-.109-.036-.26.128-.215.233-.472-.25.004.042-.024-.126.073-.075.015-.009.033-.1-.027-.043.166.025.042-.052.2-.051.057-.07.124-.145.14.045-.167.052-.058-.03-.151-.07.266.022.184-.182.414-.101.115.024.042-.134.106z" fill="#FFB800"/><path fill-rule="evenodd" clip-rule="evenodd" d="M47.517 16.918c-.098.366-.083.441-.18.807l.141.003.125-.074c.076-.015-.066-.017.109-.006 0 0 .009-.033.033.009l.009-.033.1.026.032.01c.208.02.27-.213.758-.046-.031-.151-.108.006-.04-.118l.199.053c.015.076.042-.024-.06.091.075-.015.1.027.117-.04.051-.057.042-.024-.006-.108l.009-.033c.166.044.123.069.256.104-.006-.108-.04-.117.06-.09.06-.092-.025-.043.234-.08.25-.004.163.186.307.047l-.132-.036c.042-.024 0 0 .075-.015l.074-.016c.118-.04.093-.082.26-.037 0 0 .008-.034.032.009l.01-.034.099.027.018-.066.066.017-.018.067.158-.064.01-.033c.108-.007-.076.015.066.017.042-.024.009-.033.108-.006l.084-.049c.13.178-.069.124.181.12-.015-.075.01-.033-.072-.126.297.08.008-.034.249-.005.06-.09.042-.024.259-.037l.009-.033.173.011c.109-.006.076-.015.151-.03l.117-.04c.25-.005-.075.015.223.095l-.039-.117-.033-.01.324-.019c-.053.2-.06.09.03.15.127-.072.043-.023.087-.19.2.054.051-.057.25-.004.007.109.024.042-.011.175l.066.018c.07-.266-.13-.177.062-.233a.857.857 0 01.35.023l-.017-.076c.199.054.14.145.15-.03.2.053.016.075.215.128l-.015-.075c.008-.033-.067-.018.042-.024.06-.091-.016-.076.183-.022l-.018.066.1.027.044-.166.132.035c-.104.258-.19.448-.28.78l.715-1.875c-.084.049-.084.049-.128.215.008-.033 0 0-.017-.075l.036-.133c.027-.1.078-.158.137-.249-.172-.153-.1-.026-.178-.261-.24.363-.114.824-.42 1.17-.105-.135.032.151-.023-.042l-.762-.205-.054.2c-.33-.09-.182.021-.447-.05l-.018.067c-.01.033.033.009-.018.066-.25.004-.231-.062-.481-.058 0 0-.076.015-.175-.011-.07.266-.009.033-.101.115-.2-.053-.365-.098-.59-.052l-.758.046c-.033-.009-.075.015-.108.006s-.108.007-.108.007l-.466.017-.01.033c-.108.007-.207-.02-.282-.005-.274-.038-.024-.042-.184.023-.074.015-.14-.003-.216.013 0 0-.175-.012-.217.013-.207-.02-.258.037-.456-.016-.072.266-.01.033-.103.115l-.331-.09-.115.433c-.081-.093-.09-.06-.028-.293-.109.007-.067-.018-.12.182zm11.143-.923c-.165-.044-.066-.017-.09-.06.166.045.033.01.09.06zm.136-.106c-.06.09.048.084-.117.04.042-.024.042-.024.117-.04zm-1.43-1.026c-.03.241.061.301.025.434.082.093.089.202.086.344.04.118.046.226.086.344.015.076.015.076.073.127-.045.166.015.075-.142-.003.022.184-.015-.075-.086.19.216-.012-.16.065.041-.023l.043-.025c.033.01-.049-.084.1.027.176-.13-.027.1.225-.046.092-.082-.1-.027.042-.025l.033.01c.1.026-.06.09.192-.056.009-.033.05-.058.093-.082.393-.144.175.011.484-.084.165.045.075-.015.199.054l-.025-.042c-.007-.11-.033-.01.018-.067l.177-.13.075-.016c.125-.073-.015-.075.15-.03.06-.092.141.002.234-.08.16-.065.078-.158.325-.02.002-.142-.007-.109.11-.149l.067.018c.033.01.024.043.048.085l-.1-.027.016.075c.166.045.058.051.117-.04l.067.018c-.036.133-.06.091.072.127-.119-.353-.081-.093-.16-.329.174.012.31-.095.375-.077l.033.01c.224.095.109-.007.325-.02l.018-.067c-.142-.002-.042.024-.184.022.093-.082.084-.049.244-.113l.15-.03c.108-.007.192-.056.3-.062l.027-.1c-.292.028-.369.186-.716.021.018-.066 0 0-.033-.009l-.009.034-.066-.018a.507.507 0 01-.24-.03c-.144.14-.025-.042-.135.107l-.12.182c-.049-.085-.025-.043-.03-.151l.035-.133c.057.05.108-.007-.117.04-.15.03-.111.148-.127.072l-.042.025c-.695-.187-.083.049-1.011-.201l-.115.432-.53-.142c-.497-.134-.374-.065-.371-.207.024.042-.018.067-.036.133-.02.209-.044.166-.095.224l-.053-.335c-.173-.011-.017.067-.114-.102-.016-.076.042-.024-.049-.084zm-14.997 4.449c-.166-.045-.066-.018-.09-.06.165.044.033.009.09.06zm-1.313.395l.034.01.126-.074c.126-.073.084-.049.225-.046.183-.022.033.009.201-.089l.009-.033.225-.046c.102-.115-.033-.01.126-.073l.075-.016c.076-.015-.066-.018.108-.006.025.042 0 0 .067.018l.1.026.017-.066.009-.034c.161-.206.09.06.2-.088l.1.027.009-.034c-.009.034-.066-.017-.015-.075.102-.115.015.075.126-.073.165.044.033.009.09.06l.102-.115c.148.11-.033-.01.114.102.045-.166-.015-.076.045-.166.115.102.015.075.121.21l.111-.148-.05.058c-.082-.094-.058-.051-.064-.16.098.027.033.009.182-.022l.13-.215c-.085.049-.041-.118-.094.082l-.024-.042c-.024-.042-.108.006-.108.006l-1.482-.434c-.089.332-.027.1-.153.173.045-.167.03-.242.023-.35-.06.09-.018.066-.036.132-.095.224.007.11-.152.173.077-.157.137-.248.181-.414l.107-.4c-.15.031-.016-.075-.155.315-.027.1-.078.158-.122.324-.08.3-.066-.018-.253.68-.075.016.025.043-.033-.008l.007.108a1.528 1.528 0 01-.182.415c-.097.366-.077.157-.197.34.09.06.09.06.223.095l-.072-.127z" fill="#FFB800"/><path fill-rule="evenodd" clip-rule="evenodd" d="M33.643 62.914l-.075.016.075-.016zm23.399 4.906l-.058-.05.058.05zm-23.377-8.714l-.05.058.05-.058zm29.675 7.593c.042-.024.115.102.025.042 0 0-.109.007-.025-.042zM35.3 58.833c.027-.1.067.018.033.009 0 0-.06.09-.033-.01zm1.858-1.64l-.01.034.01-.033zm0 0l.05-.057-.05.058zm33.147 7.886c.042-.024.114.102.024.042 0 0-.109.007-.024-.042zm7.054-2.094l-.057-.051.057.05zm7.346-1.054l-.057-.051.057.051zm14.624-4.514l.074-.015-.075.015zm1.427-.828c.06-.09-.024-.042.084-.048l-.084.048zm.084-.048c.06-.091.018-.067.093-.082-.06.09-.009.033-.093.081zm-2.452-1.587l-.033-.01-.01.034c-.065-.018-.032-.009-.057-.05-.164-.045-.033-.01-.224.045l-.076.016c-.108.006-.192.055-.325.02-.041.024-.009.032-.083.048l-.4.035c-.108.007-.41.068-.509.041-.075.016-.126.074-.182.023l-.092-.06c-.002.142.04.117-.1.115-.418.101-.284-.005-.442.06-.085.048-.094.081-.226.045-.042.025-.042.025-.118.04l-.267.07c-.15.032-.117.04-.232-.062-.011.176.058.051-.143.14-.244.113-2.022.525-2.65.749-.82.278-1.748.563-2.658.782-.577.166-.81.245-1.564.007-.828-.223-4.476-1.846-4.616-1.99-.231-.063-1.081-.47-1.437-.602-.521-.175-1.009-.342-1.572-.494-.704-.154-2.248-.355-2.779.037l.181.12c.272.18.576.369.857.515.27.18.551.327.865.483.733.446 1.474.86 2.216 1.274.338.197.7.437 1.07.644.181.12.863.624.996.66.164.187.434.367.606.52.24.17.412.324.617.486-.06.09-.403.177-.52.217-.16.064-.351.12-.51.184l-2.109.715c-.192.056-.88.37-1.036.292-.347-.165-.775-.422-1.113-.62-1.003-.627-2.379-1.46-3.522-1.697-.307-.047-.59-.051-.857.02-.15.03-.268.07-.385.11-.126.073-.218.155-.335.194.052.335 1.146 1.557 1.455 1.996a.469.469 0 01.105.136l.107.135c.057.051 0 0 .081.093.187.23.827 1.293.84 1.51-.094.082-.886.26-.995.267-.342.086-.651.181-.993.267-.719.163-1.338.353-2.013.492-7.39 1.755-13.537 2.703-21.22 3.025-.758.045-1.498.024-2.28.028-1.58.073-2.97.092-4.534.1-.382-.033-1.937-.059-2.319-.09-.09-.06-.042.024-.049-.085l-.132-.035c-.06.09.015.075-.334.052l-.947-.04c-.199-.054-.03-.151-.256-.105-.084.049.057.051-.084.049-.184.021-.157-.078-.157-.078l-.141-.003c.006.109.033.01-.018.067-.298-.08-.117.04-.28-.147l-.06.091c-.199-.054-.223-.096-.422-.15.015.076-.009.034.073.127-.53-.142-.31.095-.927-.25-.051.059-.042.025-.036.134-.398-.107-.223-.096-.413-.183-.069.125-.102.116-.457-.016a.511.511 0 00-.223-.095c-.033-.01-.1-.027-.133-.036l-.108.007-.009.033c-.216.013-.945-.183-1.159-.312l-.033-.009c-.148-.111.009-.033-.148-.111s-.192.055-.753-.238l-.033-.009-.256-.105c-.057-.05-.057-.05-.181-.12a.664.664 0 00-.256-.104l.192-.056c-.313-.155-.232-.062-.373-.064-.03-.151.084-.049-.139-.145l-.124-.069a1.833 1.833 0 01-.32-.264c-.196-.195-.163-.186-.145-.253l.042-.024-.1-.027c-.063-.16-.083.049-.187-.229l-.073-.126c-.015-.075.018-.067.045-.166-.09-.06-.033-.01-.09-.06-.007-.11.09.06-.058-.052l.009-.033c-.115-.102-.121-.21-.068-.41l-.033-.01-.049-.083c.102-.116.13-.358.175-.524l-.066-.018a1.823 1.823 0 01-.082.442l-.033-.01c.035-.132.071-.8.215-.94.089-.332.432-.953.644-1.217.06-.09-.048-.084.108-.006.056-.341-.028-.293.153-.173.053-.2-.013-.217.122-.324.06-.09.11-.148.17-.239l.33-.303c.042-.025-.033-.01.05-.058.051-.058-.041.024.109-.007.053-.2.053-.2.113-.29.093-.082.177-.13.236-.221.089.201.056.193.106.135.084-.049.033.009.018-.067-.048-.084-.024-.042-.082-.093l.228-.188.01-.033.083-.049.042-.024c.06-.091.078-.158.195-.198a.446.446 0 01.185-.164c.06-.09.33-.303.414-.352l.177-.13c.075-.016.024.042.084-.049.174.011.135-.106.135-.106.008-.034-.14-.145.15-.031.035-.133.018-.067.011-.176.075-.015.042-.024.133.036l-.025-.042c.018-.067-.015-.076.06-.091l.084-.049c.069-.123.027-.1.135-.106l.018-.066-.058-.051-.066-.018-.018.066-.219.155c-.042.025-.05.058-.117.04l-.033-.009-.075.016c-.135.106.115.102-.06.09l-.05.058a.268.268 0 01-.169.097c-.167.098-.183.023-.285.138-.152.172-.068.124-.258.037.064.16-.011.175-.12.182-.075.015-.024-.042-.117.04-.101.115.1.026-.101.115l-.042.024-.084.049-.042.024-.084.049c-.186.164.042-.025-.15.03-.118.04-.043.025-.102.116l-.033-.01c-.067-.017-.007-.108-.084.05-.109.006-.091-.06-.027.1l-.1-.027-.068.124c-.024-.042-.024-.042-.09-.06-.063.233-.078.157-.244.113l.016.075c-.01.034.075-.015-.01.034-.05.057-.041.024-.132-.036-.035.133-.017.066-.01.175-.151.031-.082-.093-.151.031l-.1-.027c.055.193.016.076-.128.215l-.057-.051c-.075.016-.066-.018-.108.007.021.184 0 0 .024.042.048.084.026-.1.048.084l-.159.064-.522.359c-.09-.06-.084.049-.126.073-.092.082-.05.058-.101.115l-.051.058-.033-.01c-.168.098-.066-.017-.144.14.009-.033-.022-.184-.082-.093-.06.091.058.051-.044.167-.15.03.133.035-.033-.01-.033-.008.084-.048-.066-.017-.109.006.008-.033-.06.09-.086.191-.126.074-.27.213l-.009.033c-.185.164.018-.066-.126.073-.21.122.042-.024-.068.125-.108.006-.133-.036-.184.022-.101.115.051-.058-.017.066-.018.067-.033-.009-.109.007-.075.015-.033-.01-.017.066-.054.2-.111.149-.398.428-.144.14-.111.148-.321.27-.12.182-.219.155-.261.18-.117.04-.033-.01-.05.057-.019.067.107-.006-.12.182-.051.057-.051.057-.093.082l-.11.148c-.213.264-.109.007-.178.13-.06.092.075-.015-.026.1-.051.058-.067-.017-.177.131l-.137.248c-.142-.002.099.027-.034-.008-.033-.01.076-.016-.066-.018-.029.242.075-.016-.011.175-.018.067-.06.09-.102.115-.05.058-.05.058-.077.158-.075.015.024.042-.09-.06l-.036.133c.075-.016.009-.033.066.018-.144.139-.308.487-.412.744-.206.373-.146.282-.243.648-.01.033-.027.1-.036.133-.06.09.024.042-.084.048l-.035.133.099.027-.044.167-.162.206c.141.002.009-.034.183-.022-.044.166-.004.284-.007.425l-.009.034.086.344-.009.033-.009.033-.042.025c.166.044.1.026.14.144a.596.596 0 01.087.202c.082.093.058.051.064.16.172.153.113.244.194.337.058.051.067.018.124.069.139.144-.084.049.163.187.033.009.09.06.157.078.148.11.106.135.338.197l-.051.058c-.01.033-.033-.009-.018.066.141.003.117-.04.25-.004.066.018.148.111.247.138.015.075.042-.024-.018.067l.19.086c.06-.09-.049-.084.34.056.166.045.256.105.389.14.587.194.87.199 1.448.426.166.044.532 0 .822.114.123.069.024.042.147.111.15-.031.051-.057.226-.046 1.029.134.464.124.786.247-.04-.118-.14-.145.068-.124.217-.013.1.026.257.104.393-.143.273.038.472.092.087-.191.093-.082.508-.042.1.027.208.02.283.005.132.036.157.078.29.114.119-.182-.145.139-.016-.076l.689.079c.1.026.183-.023.39-.002.133.035.076-.016.082.093.166.045.19.087.283.005l.259-.038c.174.011.316.014.49.025l.674.003c.265.072-.01.034.214.13.05-.058 0 0 .017-.067l.01-.033c.132.035.183-.022.273.037l.024.043.033.008c.195-.197.127-.073.442-.059l.033.01c.076-.016 0 0 .109-.007.291-.029.198.053.19.087l.132.035c.06-.09-.024-.042.084-.049.033.01.1.027.133.036l.008-.033-.033-.01.01-.033c.017-.066-.043.025.008-.033.133.036.075-.015.208.02.099.027.057.052.19.087l.017-.066.01-.033c.065.017.098.026.14.002l.782-.004c.175.012.175.012.257.105.11-.149.1-.115.276-.104l1.098.01-.084.049c.066.018.141.002.174.011.216-.013 0 0 .126-.073.201-.088.265.071.265.071.05-.057-.015-.075.093-.082.042-.024.033.01.14.003.11-.007.218-.013.368-.044.1.027.133.036.208.02l.074-.015.175.011c.141.002.184-.022.298.08.012-.175-.015-.075.027-.1.23.205.075-.015.315.014.16-.064.118-.04.241.03.051-.059-.081-.094.234-.08.1.026.075-.016.184-.022.075-.016.292-.029.35.022l.056.052c.153-.173.102-.116.4-.036.051-.057.015.076.027-.1.09.06.163.187.297.08l-.131-.035c.143-.14.423.007.49.025l.06-.09c.09.06.024.041.156.077.011-.175-.016-.075.026-.1l.1.027c.135-.106.208.02.325-.02l.083-.048c.008.109.04.117.173.153-.049-.084-.082-.093-.082-.093.009-.033-.099-.027.05-.058.118-.04.55-.066.65-.04.1.028.058.052.118-.039.09.06.084-.049.006.109.117-.04.042-.024.168-.097l.042-.025c.15-.03.058.051.207.02.085-.048-.024-.042.076-.015l.024.042.033.01c.078-.158.051-.058.45-.094l.076-.015c.075-.016-.066-.018.25-.004.4-.035.199.053.309-.095.048.084.048.084.18.12l.01-.034-.033-.008c-.007-.109-.034-.01.018-.067.348.023.075-.015.333-.053l.373.065c.102-.115-.072-.126.127-.073.024.042-.076.015.09.06-.007-.109.017-.066.06-.09.14.002-.034-.01.333-.053.075-.016 0 0 .1.026l.098.027c.12-.182-.143.14-.015-.076.075-.015.109-.006.184-.022l.208.02.033.01.042-.025.033.01c.15-.032.126-.074.225-.047 0 0 .009-.033.033.009l.009-.033.1.026.042-.024.108-.007c.225-.046.116-.04.315.014l.01-.033.041-.025c.076-.015-.018.067.133.036l.042-.024c.125-.073.026-.1.192-.056l.376-.077c.15-.03.225-.046.382.032.05-.058.015.075.026-.1l.283.005c.024.042.033.009.09.06.102-.115-.048-.085.093-.082.142.002-.002.142.142.002l.1.027c.01-.175-.05-.084.15-.031-.074-.126.017-.066.026-.1l.283.005c.117-.04.075-.015.208.02.05-.057-.033-.009.05-.057l.751-.155c.142.003.085-.048.09.06l.133.036.01-.033-.034-.009c-.007-.109-.033-.009.018-.067.108-.006.099.027.231.063.012-.175-.015-.076.027-.1.157.078.049.084.223.096-.006-.11.033.008-.015-.076l-.066-.018-.024-.042c.108-.006.258-.037.366-.044.075-.015.033.01.075-.015l.075-.016c.216-.013.067.018.233.063.1-.115-.034-.01.068-.124.265.071.207.02.292-.029.242-.113.057.051.441-.06.394-.143.3-.061.424.008.102-.115-.033-.009.069-.124.133.035.066.018.148.111l.009-.033s-.015-.076.134-.107c.084-.048.419-.101.518-.075.098.027-.01.034.107-.006.043-.025-.057-.051.118-.04a.895.895 0 01.342-.086c.268-.07.283.005.325-.02.241.03.07-.124.267-.07.108-.007-.009.033.133.035.1.027-.025-.041.141.003l.01-.034c-.01.034-.034-.008-.034-.008l.009-.034c.009-.033-.108.007.159-.063.15-.032.126-.074.283.004.069-.124-.027.1.009-.033.009-.034-.051.057.017-.067.091.06.067.018.115.102.044-.166.153-.173.16-.064.165.045.056.052.15-.03l-.05-.085.1.027c.127-.073.352-.12.475-.05.07-.125-.027.099.009-.034.009-.033-.051.058.018-.066.09.06.033.009.048.084l.067.018c.011-.175-.049-.084.06-.091.024.042-.01.033.066.018l.065.017c.184-.022-.032-.009.15-.03-.014-.076.019-.067-.005-.109l.324-.02s.018-.066.1.027l.032.01c.012-.176-.015-.076.027-.1.076-.016-.024-.043.033.008l.058.051c.06-.09.06-.09.176-.13.007.108.04.117.173.153-.007-.109-.057-.051-.097-.169.141.003.267-.07.409-.068.107-.007.024.042.183-.022.126-.073.093-.082.174.011.06-.09.018-.066.136-.106l.726-.197c.15-.03.024.043.175.012l.05-.058c.226-.046-.15.03.108-.006.142.002.042-.025.16-.065l.1.027.008-.033c.083-.049.126-.073.226-.046l.065.017c.217-.013-.131-.035.32-.128a.549.549 0 01.266-.07c.075-.016.01-.034.067.017.183-.022 0 0 .117-.04.134-.106.252-.145.366-.043.01-.034-.04-.118.294-.17.184-.023.157.077.25-.005l.05-.058.034.01.066.017c.216-.013-.108.007.05-.057.178-.131-.007.033.142.002.15-.03-.066-.018.102-.115.15-.031.058.05.376-.078.075-.015.057.052.183-.022l.618-.19c.275.039.127-.073.385-.11.15-.03.21-.122.31-.095l.1.027c.099.027-.026-.042.13.035-.047-.084-.022-.042-.03-.15.175.011.469-.16.653-.181.015.075.05-.058-.027.1.066.017.066.017.117-.04l.042-.025.01-.033.04-.025c.094-.081.403-.176.544-.174l.033.009c.217-.013-.225.046.118-.04l.117-.04c.074-.015.083-.048.134-.106.124.069 0 0 .106.135.045-.166-.04-.117.087-.19 0 0 .393-.144.417-.102.09.06-.024-.042.025.042.163.187-.09-.06.057.052.096-.224-.013-.218.244-.113.001-.142.001-.142.143-.14.134-.106.15-.03.309-.095l.168-.097c.181.12-.099-.027.082.093.062-.233.285-.137.369-.186.075-.015-.009.034.042-.024.01-.033-.033-.01.084-.049l.201-.088c.082.093.064.16.115.102.126-.073.042-.025.026-.1-.064-.16-.093.082-.024-.042.109-.007.067.018.2.053l.016-.066c.184-.022-.066-.018.136-.106.162.186-.003.141-.003.141l-.026.1s.042-.024.033.01c0 0 .143-.14.13.177.024.042.024.042.04.117.127.32.162.721.205 1.09.044.368.088.736.123 1.138.133.035.433-.026.541-.033.075-.015.175.011.25-.004l.074-.015.034.008.099.027c.003-.142-.015-.076.027-.1.093-.081.075-.015.108-.006s-.05.057.033.009c.127-.073-.066-.018.094-.082.092-.082.008-.034.15-.031l.032.009.034.009-.007-.109c.102-.115.118-.04.175.011.017-.066.029-.241.137-.248l.033.009c.053-.2.095-.224.14-.39l.015.075c.015.076-.051.058.024.042.06-.09.051-.057.086-.19l-.1-.027.602-1.585c.101-.115.116-.04.143-.14.02-.208-.057-.051.038-.275.054-.2.03-.242.195-.197l-.033-.009c-.009.033-.042.024-.102.115.376-.077.027-.1.252-.146.15-.03.1.027.1.027.065.018.116-.04.158-.064.225-.047.25-.005.284.005l.2-.09c.181.121-.1-.026.082.094 0 0 .042-.024.033.01-.009.033.069-.125.135-.107.184-.022-.033-.01.109-.007.066.018-.043.025.066.018.576-.165.591-.09.666-.105l.118-.04.033.009.042-.025c.066.018-.024-.042.175.012.092-.082.108-.007.224-.047l.626-.081c.117-.04.126-.073.183-.022l.109-.007c.166.045.032.01.249-.004l.009-.033.033.01.133.035c.01-.176-.049-.085.06-.091.04-.024.075-.016.116-.04.075-.015.075-.015.175.011.186-.163.265.072.43.116l.028-.1-.116-.102c.208.02.217-.013.367-.044.442-.059.325-.02.617-.048l.224-.046c.202-.088-.14-.002.042-.024.151-.031-.033-.01.19.086.003-.142-.057-.05-.006-.108.142.002.184-.022.292-.029.25-.004.165.045.267-.07.082.093.015.075.148.11.11-.148-.033-.008.018-.066.018-.066.051-.057.117-.04-.06.091-.107.4-.127.608l-.05.45c-.14.532-.246 1.324-.364 1.898-.055.342-.287 1.741-.373 1.932l-.358 2.007-.156.85a.9.9 0 00.544-.175c.15-.031.084-.049.192-.056l.429-.276c.201-.089-.082-.093.22-.155-.014-.218-.027.1-.04-.118.116-.04.032.01.134-.106l.12-.182s.033.009.024.042l.025.042c.032.01.015.076.074-.015.06-.091-.015-.075-.015-.075-.03-.151.066.017-.049-.085.142.002.067.018.127-.073l.053-.2c.042-.024.042-.024.108-.006.053-.2-.04-.118.104-.257.078-.157.158-.457.244-.647.069-.125.12-.182.155-.316.015.076-.026.1.064.16.044-.166.009-.033.06-.09-.007-.11.075-.016-.082-.094l.044-.166.17-.24c.05-.057.05-.057.078-.157l-.067-.017c-.006-.11.167-.49.202-.623.105-.258-.017.066.102-.116-.024-.042 0 0-.015-.075.003-.142.192-.59.261-.714.044-.166.24-.898.413-1.28.044-.166.112-.29.148-.423.045-.166.095-.224.149-.423.044-.167.137-.249.172-.382.133.036.182.12.16-.064-.058-.05.039.118-.076.016-.09-.06.096-.224.155-.315.06-.091-.03-.151.123-.324.161-.206.081.093.137-.248.048.084.015.075.09.06.011-.175-.124-.069.146-.282.05-.057 0 0 .018-.066l.042-.025.008-.033.06-.09.085-.05c.042-.024.05-.057.092-.082.15-.03-.041.025.034.01.032.008.023.042.074-.016-.015-.076-.033-.009.018-.067.202-.088.034.01.175.012.033.009.048.084.042-.025l-.015-.075c.116-.04.192-.055.276-.104.15-.03.006.109.243-.113.024.042.024.042.09.06-.006-.109-.048-.084.126-.073.109-.006.01-.033.177-.13l.51-.184c.193-.055.202-.088.34.056.036-.133-.04-.118-.063-.16.325-.02.041-.024.231.063l.043-.025.008-.033.018-.066s-.132-.036.076-.016c.059-.09.009-.033.083-.049l.108-.006.042-.024c.043-.025.051-.058.094-.082.108-.007.435-.168.501-.15.1.026-.024-.043.025.041.163.187-.091-.06.057.051.095-.223-.113-.244.243-.112l-.025-.043c.01-.033-.057-.05.145-.139.309-.095.242-.113.249-.004l.1.026.177-.13c.107-.007-.06.09.083-.049.153-.173-.168.097.018-.066l.192-.056c.076-.015-.033-.009.033.01l.025.041.033.01c.01-.176-.016-.076.303-.204.117-.04.284-.138.426-.135l-.018.066c.142.003.009-.033.111-.148a.34.34 0 00.108-.007c.225-.046.015.076.192-.055l.327-.161c.093-.082.285-.138.402-.177l.235-.08c.126-.073.243-.113.368-.186l.109-.006.05-.058.034.01c.168-.098-.024-.043.166.044-.016-.076-.115-.103.16-.206l-.067.124c.3-.062-.082-.094.27-.213.024.042-.076.015.09.06.11-.148-.016-.075.11-.148.26-.18.226-.047.31-.095.083-.05 0 0 .01-.034.052-.2-.094.082.016-.066.102-.116-.026.1.109-.007.033.01.033.01.042-.024.06-.091-.025-.042.026-.1.216-.013-.102.115.208.02l-.049-.084.175.011c-.007-.109.009-.033-.049-.084.093-.082.051-.058.16-.064.059-.091.059-.091.11-.149l.159-.064-.017.067c.132.035.057.05.335-.195l-.099-.027c.044-.166.051-.057.161-.206.102-.115.078-.157.211-.122.035-.133-.029-.292.155-.315l.026-.1c-.322-.122.396-.285-.896-.633-.398-.106-.496-.133-.713-.12-.042.024-.075.015-.142-.003-.108.007-.132-.035-.298-.08-.077.158.016.076-.168.098l-.072-.127c-.06.09-.033-.009-.003.142-.166-.045-.458-.016-.631-.027-.109.006-.085.048-.217.013zm-61.113-29.99l-.057-.051.057.051zm4.937-5.195l-.042.024.042-.024zm18.573-4.022l.017.076-.017-.076zm38.108 6.19c.042-.024.115.102.025.042 0 0-.108.007-.025-.042zM69.981 13.48l-.032-.009.032.01zm.535-.141c.042-.024.115.102.024.042 0 0-.107.007-.024-.042zm29.496 7.865c.042-.024.115.102.024.043 0 0-.108.006-.024-.043zm.857-.553c.027-.1.067.018.034.009 0 0-.06.09-.034-.01zm-24.114-8.343l-.075.016.075-.016zm.084-.048c.042-.025.115.102.025.042 0 0-.109.006-.025-.042zm23.082 3.965l.075-.016-.075.016zm4.193-3.079c-.092.082-.059.091-.099-.026l.099.026zm-4.833-1.443c-.075.016.09.06-.108.007-.166-.045.018-.067-.347-.165l-.026.1-.822-.114-.066-.018-.316-.014c-.241-.029-.108.007-.416-.04-.505-.1-1.064-.001-1.584-.177l-.966.025c-.208-.02-.175-.011-.29-.113-.1.115.049.084-.126.073l-.065-.018s-.075.015-.142-.002l-.457-.016c-.042.024.033.009-.076.015-.074.015-.065-.018-.107.007-.142-.003-.09-.06-.217.013 0 0 .009-.034-.033-.01l-.015-.075c-.058-.05.108-.006-.124-.069.022.184-.064-.16.024.043l.024.042s.2.053-.258.037c-.108.007-.15.031-.24-.03l-.19-.086c-.01.034-.018.067-.06.091-.042.024-.15.031-.208-.02-.067-.018.033.009-.058-.051-.156-.078-.207-.02-.191.055l.024.042c-.166-.044-.109.007-.232-.062l-.299-.08c.049.084.082.093.14.144-.265-.071-.533 0-.632-.027-.14-.003.009-.034-.132-.036-.034-.009-.168.097-.4.035-.09-.06.033.009-.184.022l-.107.006-.924.002c-.133-.036-.1-.027-.19-.087-.012.175.015.075-.027.1-.057-.052-.124-.07-.264-.072-.142-.002-.084.049-.193.056l-.123-.07c-.1-.026-.1-.026-.175-.01.024.041-.009.033.057.05l-.009.034.058.05c-.198-.053-.283-.004-.424-.006l-.133-.036c-.141-.002 0 0-.117.04-.108.006-.066-.018-.124-.07-.059.092-.018.067-.125.074-.109.006.024.042-.024-.042-.181-.12-.118.04-.193.055-.042.024-.042.024-.108.006l-.033-.008-.825.027c-.107.007-.065-.018-.215.013-.094.082-.16.065-.292.029-.126.073-.075.015-.475.05-.183.022-.208-.02-.325.02-.033-.009.09.06-.108.006-.015-.075.018-.066-.09-.06-.076.016-.043.025-.094.082-.09-.06-.024-.042-.156-.077-.03.241-.192.055-.391.001.006.109-.033-.009.015.076l.09.06c-.132-.036-.032-.01-.174-.011-.225.046-.108.006-.216.012-.25.005-.05.058-.274-.038-.012.176.015.076-.027.1-.264-.071-.2.089-.415-.04-.05.057.097.168-.084.048-.09-.06.051-.057-.214-.128l.048.084c.058.051.034.009.049.084-.175-.011-.382-.031-.5.009-.233.08-.204-.163-.3.061l-.106-.135c-.035.133-.018.066-.077.157-.057-.05-.081-.093-.18-.12-.118.04-.01.034.03.151-.497-.133-.06.091-.59-.052l-.027.1-.105-.135c-.045.166-.103.115-.285.137-.118.04-.226.046-.368.044-.083.049-.116.04-.225.046-.24-.029-.081-.093-.225.046l-.058-.05c-.057-.052.067.017-.09-.06-.051.057-.042.024-.035.133-.464-.125.032.008-.434.025-.456-.016-.1.116-.499.009l-.042.024c-.059.091-.3.062-.333.053l-.15.03c-.076.016.009-.032-.142-.002l-.008.034-.034-.01-.074.016c-.042.025 0 0-.076.016-.042.024-.033-.01-.075.015l-.408.068-.067-.017-.009.033-.033-.01c-.18-.12.142.003-.115-.101l-.035.133c-.25.004-.016-.076-.232-.063l-.067-.017c-.15.03-.278.245-.501.15-.066-.018.075-.016-.066-.018-.066-.018 0 0-.141-.002.015.075.015.075-.352.119-.075.015-.117.04-.192.055-.066-.018-.066-.018-.108.007l-.142-.003c-.075.016-.008.034-.066-.018-.24-.029.066.018-.225.047l-.075.015c-.075.016.011-.175-.084.049a.677.677 0 00-.257-.105c.007.11 0 0 .106.136-.424-.007-.552.208-.74-.021-.05.058.009-.033-.008.033-.018.067 0 0 .006.109-.123-.069 0 0-.106-.136-.042.025-.05.058-.093.083l-.009.033-.033-.01c-.143.14-.075.016-.24-.028.007.108.015.075-.027.1-.093.081.008-.034-.108.006-.15.03-.111.149-.283-.005-.068.124.05.085-.101.115-.076.016-.1-.026-.232-.062l.024.042-.01.034c-.017.066.067.017-.05.057l-.19-.087c-.101.116.124.07-.36.153a.574.574 0 01-.225.046c-.292.029-.118.04-.259.038-.033-.01-.042.024-.042.024l-.142-.002-.008.033-.376.077c-.174-.011-.033-.009-.231-.062-.036.133.015.075-.07.124-.2.088-.032-.01-.132-.036-.123-.069-.042.024-.207-.02l-.01.033c.026.042.124.07-.134.107-.192.055-.117.04-.316-.014l-.017.066c-.025-.042-.034-.009-.091-.06-.035.133.016.076-.069.125-.201.088-.033-.01-.132-.036-.124-.069-.042.024-.208-.02-.009.033.154.22-.417.101.006.109.039.118-.103.115-.04.025.059.052-.107.007l-.033-.009-.133-.036-.144.14c-.168.097-.216.013-.315-.014-.283-.005.13.178-.26.038-.017.066-.017.066-.06.09-.05.058-.04.025-.074.016-.15.03-.05.057-.192.055-.168.098-.267.07-.433.026-.045.166-.11.149-.235.08l-.009.033c-.077.158-.206-.02-.24-.03-.06.092-.002.143-.135.107-.108.007.042-.024-.108.007-.084.049-.018.066-.093.082l-.033-.01s-.1-.026-.183.023c-.118.04.1.027-.085.049-.092.082-.116.04-.233.08-.109.006-.118.039-.26.037-.074.015-.008.033-.066-.018-.182.022.09.06-.167.097l-.066-.018c-.217.013-.261.18-.653.181-.092.082.016.076-.15.031-.134.107-.267.07-.392.144-.076.015 0 0-.118.04l-.141-.003c-.109.007-.01.034-.175-.011l-.026.1c-.142-.003.041-.024-.226.046-.105-.135-.04-.117-.114-.102-.052.057-.025-.042.03.15-.174-.01-.426.136-.601.124-.05.058-.51.184-.576.166-.066-.018-.057-.051-.142-.002l-.026.1c-.317-.014-.52.216-.784.145l-.033-.01c-.067-.017-.034-.008-.142-.002.012.218.027-.1.04.118-.109.007-.067-.018-.151.03-.006-.108-.006-.108-.139-.143.006.108-.033-.01.04.117l-.165-.044c.006.108 0 0 .105.135l-.41.068c-.149.031-.007.034-.242.113l-.276.104-.075.015c-.108.007.033.01-.066-.017-.067-.018.075-.016-.067-.018-.132-.036-.066-.018-.069.124-.18-.12.012-.175-.258.038a1.721 1.721 0 01-.468.159l-.075.015-.192.055c-.169.098-.328.162-.451.093l-.01.033c-.258.037.26-.037-.116.04-.117.04-.024-.042-.16.064l-.099-.027c-.01.175.024.043-.035.133l-.15.031c-.343.086-.09-.06-.394.144-.15.03-.35.12-.492.117-.047-.226.044-.166.022-.35-.048-.085-.024-.043-.081-.094l-.033-.009.008-.033-.046-.226-.024-.042c-.073-.127-.055-.194-.077-.378-.046-.226-.067-.018.053-.2-.108.007-.075.016-.132-.035.093-.082.084-.049.06-.09-.032-.152-.003.141-.082-.094.002-.142.067.018-.02-.326.109-.007.109-.007.144-.14-.108.007-.01.034-.159.064.044-.166-.046-.226-.002-.392l.01-.033c-.023-.184-.052.057-.032-.151-.045-.226-.006-.109.063-.233l.059-.091c-.183.022.033.009-.083.049-.084.049-.042.024-.076.015-.042.025-.183.022-.441.06-.217.013-.025-.043-.175-.012-.033-.009-.141-.002-.199-.053-.137.248-.05.057-.227.188-.202.088-.352.12-.496.259-.167.097-.312.237-.364.436l-.2.482-.713 1.875-.018.067-.35-.023c-.075.016-.066-.018-.092.082l-.066-.018c-.007-.108.042-.024-.073-.126-.06.09.058.05-.117.04.024.042 0 0 .015.075l.058.051c-.109.007-.109.007-.184.022l.027-.1-.199-.053c.048.084.048.084.064.16-.283-.005-.034-.01-.433.026l-.042.024c-.225.046-.15.03-.174-.011-.075.015-.033-.01-.042.024-.16.064-.117.04-.226.046-.15.031-.042.025-.199-.053.007.109-.002.142-.426.135-.015-.076.018-.067-.09-.06-.076.015-.076.015-.069.124l-.199-.054c.166.045.067.018.09.06l-.099-.026-.05.057c-.148-.11.032.01-.115-.102-.036.133.04.118-.318.128-.109.007-.301.062-.4.035-.05.058-.018.067-.117.04-.1-.027-.075.016-.007-.109-.201.089.007.11-.177.131-.117.04.01-.033-.19-.087l-.018.067-.009.033c-.125.073-.083.049-.165-.044-.053.2-.177.13-.3.061-.07.124.026-.1-.01.034-.008.033.052-.058-.017.066-.058-.05-.024-.042-.09-.06-.124-.069-.16.064-.226.046-.042.025-.033-.009-.132-.035l.015.075c-.042.024.057.051-.108.007l-.409.068-.066-.018c-.283-.005-.003.142-.424-.007-.02.209-.051.058-.202.088l-.042.025c-.075.015 0 0-.066-.018-.042.024-.1-.027-.166-.045.071.269-.14-.002-.36.153.027-.1.039-.275.039-.275.077-.157.066.018.161-.206-.066-.018-.15.03-.053-.335.075-.015-.024-.042.09.06l-.03-.15c-.066-.019.024.041-.033-.01.107-.399.137-.248.1-.508.02-.208.131-.891.2-1.015.051-.058.051-.058.077-.158.045-.166-.075.016.052-.592.027-.1.038-.275.074-.408.037-.275.001-.142.13-.357-.064-.16-.099-.027-.028-.293l.129-.75c.037-.274.077-.157.155-.314-.157-.078-.064-.16-.002-.393l.102-.65c.045-.166.051-.057.087-.19.053-.2-.066-.018.05-.45l.023.042c.033.009.033.009.069-.124-.166-.045-.076.015-.082-.094l.2-.48c-.04-.118-.024-.043-.058-.052l-.073-.126c-.083.049-.05.057-.192.055l-.042.024-.075.016-.01.033-.242.113c-.108.006-.024-.042-.084.049-.977.735-1.194 1.282-1.823 2.575-.306.88-.594 1.694-.9 2.574-.14.39-.769 2.217-.963 2.414l-.13.215c-.04.025-.05.058-.068.125l-.11.148c-.135.106 0 0-.15.03.006.11.048.085-.063.234-.143.14-.077.157-.234.08-.011.175-.07.265-.254.287l-.35-.022c.149.11-.032-.01.116.102a.435.435 0 01-.235.08l.01-.034c-.076.016-.076.016-.175-.011l.024.042-.009.033s.075-.015-.018.067c-.084.049-.042.024-.132-.036l-.024-.042c-.042.024-.042.024-.06.09.117-.039.042-.023.066.019-.084.048-.05.057-.192.055l.018-.067c-.184.022.033.01-.102.116-.093.082-.142-.003-.234.08-.084.048-.102.114-.276.103-.244.113-.184.022-.268.07-.075.016.024.043-.093.083-.075.015-.066-.018-.123-.07l-.027.1s-.042.025-.05.058l-.301.062-.034-.009c-.032-.009.06-.09-.066-.018-.084.049-.033-.009-.068.124-.049-.084-.016-.075-.124-.069l.057.052-.327.161c-.108.007.034.009-.066-.018-.1-.026.036-.133-.108.007l-.009.033-.042.024-.402.177c-.075.016-.108.007-.15.031l-.076.016c-.084.048-.21.121-.309.095l-.057-.052c-.03.242-.093.082-.336.195-.126.073.132.036-.084.05l-.042.023.009-.033c-.1-.027-.1-.026-.157-.078-.003.142.048.085.055.193-.175-.01-.46.126-.619.19-.126.073-.144.14-.141-.002-.424-.007.03.15-.252.146l-.042.024s-.084.05-.117.04c-.084.049-.033-.009-.193.055-.14-.002.067.018-.14-.002-.003.142.057.051.006.109 0 0-.126.073-.16.064-.234.08-.05.058-.273-.038-.027.1-.018.066-.069.124.015.075.033.009-.018.067-.075.015-.009.033-.066-.018-.183.022.033.009-.126.073l-.294.17a2.192 2.192 0 01-.52.217c-.05.058-.008.033-.083.049-.042.024-.051.057-.084.048-.32.27-.327.162-.385.11-.01.176-.02.21-.218.156.072.126.048.084-.078.157l-.21.122-.042.024c-.093.082-.288.28-.396.286-.159.064.042-.024-.101.115-.043.024.008-.033-.01.033-.05.058-.044.167-.218.155.013.218.066.018-.02.209-.045.166-.053.2-.047.308.007.109-.002.142.08.235.147.111.174.012.162.187.2.053.241.029.44.082.199.054.223.096.422.15.01-.176-.016-.076.026-.1.133.036.208.02.316.014.265.07-.117.04.29.113.119-.182-.145.14-.016-.076.183-.021.132.036.29.114-.016-.075.017-.066-.007-.109.108-.006.174.012.316.014.183-.022.108-.007.282.005 0 0 .042-.025.033.009l.01-.034c.065.018.032.01.057.052.216-.014-.091-.06.159-.065.006.109.006.109.139.145l.017-.067c-.057-.05-.033-.009-.048-.084l.283.005s.05-.058.084-.05c-.027.1-.003.143.097.17.075-.016.008-.034-.007-.109-.088-.202-.011.175-.024-.042l.616-.048c.267-.071-.026.1.316.013l.225-.046.133.036.018-.067.008-.033c.043-.024.01-.033.085-.049.075-.015.075-.015.14.003l.11-.007.14.002c.067.018.076-.015.15-.03.085-.05.094-.082.226-.047l.05-.057c.058.05-.008.033.149.11-.044-.367-.1-.026.303-.203-.01.033.024.042.024.042l.033.01c.066.017-.009.032.033.008.084-.049-.073-.127.175.011.029-.241.192-.055.258-.037-.007-.109-.075.015-.007-.109.051-.057-.033-.009.076-.015l.042-.024.075-.016.033.009.084-.049 2.916-.82c.478-.192.937-.317 1.406-.477.384-.11 1.087-.349 1.535-.3 1.595.145 5.913 2.59 6.867 2.74.882.415 2.325.732 3.307.64.25-.004.767-.079.935-.176-.106-.136-.947-.576-1.161-.705-.148-.111-1.137-.662-1.161-.704-.38-.174-2.933-1.645-3.105-1.799-.248-.137-1.645-1.155-1.914-1.477-.033-.009-.033-.009-.057-.051.167-.097 3.129-1.083 3.606-1.276.192-.055.369-.186.592-.09.413.183 1.664.947 2.192 1.232.832.473 1.508.869 2.552 1.078.184-.021.35.023.565.01.226-.046.394-.144.502-.15.093-.082.042-.024.168-.098a.602.602 0 00.177-.13c-.03-.151-.112-.244-.21-.413-.139-.144-.187-.229-.326-.373a3.371 3.371 0 00-.61-.77l-.814-1.075c-.098-.169-.649-1.03-.628-1.239 1.394-.302 4.094-1.108 5.428-1.32 1.905-.485 4.859-1.045 6.827-1.37 4.571-.767 9.762-1.331 14.453-1.352.608-.015 1.225-.063 1.865-.069 1.215-.03 4.71-.087 5.771.056.265.071.15-.03.407.074l.265.07c.066.019.09.06.207.021l-.33-.089s.041-.024.033.009l.423.007c.392-.002.133.036.431.116.01-.175-.016-.075.026-.1l1.171.137c.415.04.324-.02.331.089l.166.044c.051-.057-.016-.075.126-.072a.172.172 0 01.156.077l.034.01.123.068c.078-.157.36-.152.374.065.092-.082.06-.09.126-.073l2.435.584c.223.096-.042.024.148.111.132.036.292-.028.355.131-.1-.026-.165-.044-.283-.004.133.035.2.053.308.046.075-.015.159-.064.274.039.165.044.066.017.09.06.398.107.371.206.504.242l.28.147-.009.033.033.009c.296.222.166.044.311.297l.115.103-.018.066c.099.027.108-.006.166.045l.033.009.024.042c.115.102.072.126.196.195-.083.049-.117.04-.152.173l.126-.073.042-.024c.049.084.106.135.121.21.212.271.076.378.059.444.067.018.151-.03.154.22.059.444.004.785-.121 1.25-.15.032.009-.032-.141-.002-.053.2.007.11.004.251-.019.209-.06.091-.119.182-.051.057-.009.033-.054.2-.06.09-.083.048-.128.214-.105-.135.02-.208-.072-.126-.075.015-.027.1.03.15-.095.225-.227.189-.272.355l-.018.067c-.026.1-.298.454-.392.536l-.008.033c-.126.073-.084.05-.117.04-.274-.038.057.051-.162.206-.06.091-.068.124-.128.215l-.075.016c-.084.049.017-.067-.084.049.09.06.099.026-.018.066-.069.124-.102.115-.195.197-.074.016-.032-.009-.083.049.015.075.033.009-.018.066-.153.173-.153.173-.33.304-.126.073.04.117-.192.055.007.109.057.051-.026.1l-.01.033c-.05.058.025.042-.16.206-.127.073-.103.116-.253.146-.008.034-.008.034-.042.025l-.05.057-.01.034-.05.057-.085.049c-.059.09-.38.36-.455.376-.102.116 0 0-.126.073l-.389.395.402-.177c.192-.055.027-.1.168-.098.05-.057.018-.066.093-.082.15-.03 0 0 .066.018l.033.01c.043-.025.027-.1.12-.183.126-.073.075-.015.24.03 0 0-.024-.043-.033-.01 0 0 .01-.033-.024-.041-.015-.076-.033-.01.018-.067.051-.058.117-.04.183-.022-.015-.075.018-.067-.006-.109.117-.04.242-.113.358-.01.05-.058 0 0 .009-.034l.11-.148c.108-.007.033.009.093-.082.093-.082.01-.033.101-.115.034.009.043-.025.043-.025l.075-.015c.075-.015-.033-.009.033.009l.057.051c.045-.166-.04-.118.12-.182.546-.316.141.003.435-.168.135-.106.027-.1.129-.215l.105.136c-.007-.11-.007-.11-.022-.185l.202-.088c.068-.124.1-.115.267-.07l.027-.1c.102-.116.108-.007.227-.189l.142.003c.117-.04-.016-.076.174.011-.006-.109.009-.033-.006-.109-.082-.093-.075.016-.031-.15.123.068.024.041.147.11-.024-.042-.024-.042-.006-.108l.009-.034.051-.057.21-.122c.093-.082.111-.148.201-.088.133.035.077-.158.254-.288.219-.155.498-.401.615-.441.141.002.076-.015.153-.173.15-.03.015.075.141.003l.101-.116c.169-.097-.03-.15.154-.173.107-.006-.058-.05.024.043.066.017-.051.057.033.008 0 0 .024.043.05-.057.027-.1.075-.015-.015-.075l.465-.41.008-.034.153-.172c.228-.189.095-.224.294-.17.051-.059.009-.034.084-.05l-.048-.084c.069-.124.185-.164.263-.321l.073.126c.035-.133.027-.1.019-.208l.034.009c.117-.04.024.042.051-.058l.11-.148.009-.034c.102-.115.051-.057.111-.148l.4-.57c.009-.033-.066-.018.051-.057l.016.075c.077-.157.075-.015.137-.248l-.135.106c.053-.2.11-.148.163-.348l.025.042c-.011.176-.027.1.031.151.106-.399.044-.166.073-.408.02-.208.317-1.055.388-1.321l-.117.04-.009.033c.045-.167-.04-.118.005-.284.108-.007-.066-.018.082.093.017-.066.002-.142.019-.208-.072-.127 0 0-.099-.027l-.03-.151-.04-.118c-.081-.093.011-.175-.104-.277.118-.04.118-.04.153-.173-.108.007-.051.058-.168.097-.03-.15-.021-.184.144-.139l-.115-.102-.033-.01-.026.1c-.157-.077-.155-.22-.111-.385l-.141-.003c-.031-.15.042-.024-.006-.109-.04-.117.033.01-.058-.05l-.196-.196-.033-.009c-.124-.069-.091-.06-.031-.15l-.1-.028-.204-.162c-.043.025-.025-.042-.018.067l-.47-.234c-.157-.078-.305-.189-.504-.242l-1.846-.532c-.232-.063-.34-.056-.605-.127-.431-.116-.788-.106-1.186-.213z" fill="#24BDDB"/><path d="M4.25 43.81v5.177a7.43 7.43 0 01-.941.162c-.412.054-.825.08-1.237.08a5.09 5.09 0 01-1.102-.107 1.795 1.795 0 01-.779-.324 1.551 1.551 0 01-.457-.674c-.107-.288-.161-.665-.161-1.133V34.29c0-.377.099-.665.296-.862.215-.216.501-.387.86-.513.609-.216 1.316-.368 2.123-.458a19.49 19.49 0 012.58-.162c2.472 0 4.336.521 5.59 1.564 1.254 1.043 1.88 2.454 1.88 4.234 0 1.115-.286 2.068-.86 2.859-.572.79-1.253 1.402-2.042 1.833a62.33 62.33 0 001.909 2.481c.627.773 1.12 1.475 1.478 2.104-.18.63-.511 1.114-.995 1.456a2.713 2.713 0 01-1.585.485 3.43 3.43 0 01-1.022-.134 2.467 2.467 0 01-.752-.378 3.084 3.084 0 01-.591-.593 7.928 7.928 0 01-.51-.755l-2.258-3.64H4.249zm1.692-3.588c.681 0 1.219-.17 1.613-.512.394-.36.591-.88.591-1.564 0-.683-.224-1.196-.672-1.537-.43-.36-1.12-.54-2.07-.54-.268 0-.483.01-.644.027a7.88 7.88 0 00-.538.081v4.045h1.72zM15.95 35.26c0-.773.224-1.384.672-1.833.448-.45 1.057-.675 1.827-.675h8.869c.125.198.233.459.322.782.108.324.162.666.162 1.025 0 .683-.153 1.169-.457 1.457-.287.287-.672.431-1.156.431h-5.67v2.508h6.046c.126.198.233.458.323.782.107.306.161.638.161.998 0 .683-.143 1.168-.43 1.456-.287.288-.672.432-1.155.432h-4.945v2.831h6.906c.126.198.233.459.323.782.107.324.161.665.161 1.025 0 .683-.152 1.178-.457 1.483-.286.288-.672.432-1.155.432h-7.848c-.77 0-1.38-.225-1.827-.675-.448-.449-.672-1.06-.672-1.833V35.26zm19.426 13.727c-.197.054-.51.108-.94.162a9.5 9.5 0 01-1.236.08c-.413 0-.78-.035-1.102-.107a1.795 1.795 0 01-.78-.324 1.457 1.457 0 01-.484-.674c-.107-.288-.16-.665-.16-1.133V32.752c.196-.036.51-.08.94-.135a7.5 7.5 0 011.236-.107c.412 0 .77.036 1.075.108a1.8 1.8 0 01.806.323c.215.162.377.387.484.674.108.288.161.666.161 1.133v14.239zm8.108-6.391c-.788-.27-1.505-.54-2.15-.81a6.894 6.894 0 01-1.666-1.024 4.395 4.395 0 01-1.102-1.403c-.25-.557-.376-1.231-.376-2.022 0-1.528.582-2.75 1.747-3.668 1.182-.917 2.83-1.375 4.945-1.375.77 0 1.487.054 2.15.162.663.108 1.227.278 1.693.512.484.216.86.503 1.129.863.268.342.403.746.403 1.214 0 .467-.108.872-.323 1.213a3.457 3.457 0 01-.78.836c-.393-.252-.922-.467-1.585-.647a7.588 7.588 0 00-2.177-.297c-.806 0-1.397.117-1.773.35-.377.217-.565.495-.565.837 0 .27.117.494.35.674.233.162.582.315 1.048.458l1.424.459c1.684.54 2.974 1.232 3.87 2.077.914.826 1.37 1.96 1.37 3.397 0 1.529-.6 2.77-1.8 3.722-1.2.935-2.965 1.402-5.294 1.402-.824 0-1.595-.072-2.311-.216a7.497 7.497 0 01-1.855-.566c-.52-.27-.932-.593-1.236-.97a2.24 2.24 0 01-.43-1.349c0-.521.152-.962.457-1.321.304-.378.636-.666.994-.863.502.395 1.11.737 1.828 1.024a6.504 6.504 0 002.392.432c.878 0 1.496-.135 1.854-.405.358-.27.537-.584.537-.944s-.143-.629-.43-.809c-.286-.197-.69-.386-1.209-.566l-1.129-.377zm10.18-7.336c0-.773.224-1.384.672-1.833.447-.45 1.056-.675 1.827-.675h8.869c.125.198.233.459.322.782.108.324.161.666.161 1.025 0 .683-.152 1.169-.457 1.457-.286.287-.671.431-1.155.431h-5.67v2.508h6.046c.126.198.233.458.323.782.107.306.16.638.16.998 0 .683-.142 1.168-.43 1.456-.286.288-.671.432-1.155.432h-4.945v2.831h6.907c.126.198.233.459.323.782.107.324.16.665.16 1.025 0 .683-.151 1.178-.456 1.483-.287.288-.672.432-1.156.432h-7.847c-.77 0-1.38-.225-1.827-.675-.448-.449-.672-1.06-.672-1.833V35.26zm19.292 10.464c.25.072.573.126.968.162.394.018.77.027 1.128.027.717 0 1.308-.144 1.774-.432.484-.306.726-.773.726-1.402 0-.593-.197-1.016-.592-1.268-.394-.251-.994-.377-1.8-.377h-2.204v3.29zm0-6.58h1.962c.77 0 1.326-.144 1.666-.432.359-.287.538-.71.538-1.267 0-.486-.206-.872-.618-1.16-.395-.287-.995-.431-1.801-.431a19 19 0 00-.94.027c-.341.018-.61.045-.807.08v3.183zm1.747 10.382c-.305 0-.663-.009-1.075-.027a16.066 16.066 0 01-2.58-.324 5.687 5.687 0 01-1.182-.323c-.986-.377-1.479-1.034-1.479-1.968V34.288c0-.377.099-.665.296-.862.215-.216.502-.387.86-.513.61-.216 1.37-.368 2.284-.458a24.071 24.071 0 012.822-.162c2.294 0 4.058.387 5.295 1.16 1.236.773 1.854 1.968 1.854 3.586 0 .81-.233 1.51-.699 2.104-.466.575-1.093.998-1.881 1.267.896.252 1.64.71 2.23 1.376.61.665.914 1.5.914 2.508 0 1.78-.663 3.1-1.988 3.964-1.308.845-3.198 1.267-5.671 1.267zm24.755-6.472c0 .97-.17 1.86-.51 2.67a5.632 5.632 0 01-1.425 2.05c-.627.557-1.388.988-2.284 1.294-.896.306-1.908.458-3.037.458s-2.141-.153-3.037-.458c-.896-.306-1.657-.737-2.284-1.295a5.928 5.928 0 01-1.451-2.05c-.323-.808-.484-1.698-.484-2.669V32.752c.197-.036.51-.08.94-.135a7.5 7.5 0 011.237-.107c.412 0 .77.036 1.075.108.322.053.591.161.806.323.215.162.376.387.484.674.107.288.161.666.161 1.133v8.225c0 .863.233 1.537.699 2.023.484.485 1.102.728 1.854.728.77 0 1.389-.243 1.854-.728.466-.486.7-1.16.7-2.023v-10.22c.196-.037.51-.081.94-.136a7.5 7.5 0 011.236-.107c.412 0 .77.036 1.075.108.322.053.591.161.806.323.215.162.376.387.484.674.108.288.161.666.161 1.133v8.306zm-12.712-14.32c0-.63.224-1.168.672-1.618.448-.467 1.004-.701 1.667-.701.752 0 1.343.234 1.773.701.43.45.645.989.645 1.618a2.35 2.35 0 01-.645 1.645c-.43.45-1.02.674-1.773.674-.323 0-.627-.063-.914-.188a2.71 2.71 0 01-.753-.486 2.545 2.545 0 01-.51-.728 2.598 2.598 0 01-.162-.917zm6.02 0c0-.63.206-1.168.619-1.618.43-.467 1.02-.701 1.773-.701.34 0 .654.063.94.189.288.126.538.296.753.512.215.216.377.468.484.755.126.27.188.558.188.863 0 .63-.224 1.178-.672 1.645-.448.45-1.012.674-1.693.674-.752 0-1.343-.224-1.773-.674a2.408 2.408 0 01-.619-1.645zM107.55 43.81v5.178c-.197.054-.51.108-.94.162a9.5 9.5 0 01-1.236.08 5.08 5.08 0 01-1.102-.107 1.796 1.796 0 01-.78-.324 1.556 1.556 0 01-.457-.674c-.107-.288-.161-.665-.161-1.133V34.29c0-.377.099-.665.296-.862.215-.216.501-.387.86-.513.609-.216 1.317-.368 2.123-.458a19.485 19.485 0 012.58-.162c2.472 0 4.336.521 5.59 1.564 1.254 1.043 1.881 2.454 1.881 4.234 0 1.115-.287 2.068-.86 2.859-.573.79-1.254 1.402-2.042 1.833a63.293 63.293 0 001.908 2.481c.627.773 1.119 1.475 1.478 2.104-.179.63-.511 1.114-.995 1.456a2.71 2.71 0 01-1.585.485c-.394 0-.735-.044-1.021-.134a2.466 2.466 0 01-.753-.378 3.079 3.079 0 01-.591-.593 7.915 7.915 0 01-.511-.755l-2.257-3.64h-1.425zm1.693-3.587c.681 0 1.219-.17 1.613-.512.394-.36.591-.88.591-1.564 0-.683-.224-1.196-.672-1.537-.43-.36-1.119-.54-2.069-.54-.269 0-.484.01-.645.027a7.89 7.89 0 00-.537.081v4.045h1.719zm8.992.675c0-1.403.215-2.643.645-3.722.448-1.079 1.048-1.977 1.801-2.697a7.707 7.707 0 012.687-1.672c1.039-.377 2.159-.566 3.359-.566 1.201 0 2.312.189 3.333.566a7.658 7.658 0 012.714 1.672c.771.72 1.371 1.618 1.801 2.697.448 1.079.672 2.32.672 3.722 0 1.402-.215 2.651-.645 3.748-.43 1.079-1.031 1.987-1.801 2.724a7.58 7.58 0 01-2.687 1.645c-1.04.377-2.168.566-3.387.566-1.218 0-2.347-.189-3.386-.566a7.7 7.7 0 01-2.687-1.7c-.753-.736-1.344-1.644-1.774-2.723-.43-1.078-.645-2.31-.645-3.694zm4.837 0c0 1.636.332 2.858.995 3.667.663.81 1.55 1.214 2.66 1.214 1.129 0 2.025-.405 2.688-1.214.663-.809.994-2.031.994-3.667 0-1.618-.331-2.832-.994-3.641-.645-.809-1.532-1.214-2.661-1.214-1.111 0-2.006.405-2.687 1.214-.663.791-.995 2.005-.995 3.64z" fill="#3E4E5E"/></g><defs><clipPath id="clip0_4164_335"><path fill="#fff" d="M0 0h136v80H0z"/></clipPath></defs></svg>